<svg xmlns="http://www.w3.org/2000/svg" xmlns:xlink="http://www.w3.org/1999/xlink" width="500" zoomAndPan="magnify" viewBox="0 0 375 374.999991" height="500" preserveAspectRatio="xMidYMid meet" version="1.0"><defs><clipPath id="39b56a57ef"><path d="M 21.074219 295.242188 L 354.195312 295.242188 L 354.195312 337.5 L 21.074219 337.5 Z M 21.074219 295.242188 " clip-rule="nonzero"/></clipPath><clipPath id="5f6401e08d"><path d="M 6.589844 33.273438 L 368.089844 33.273438 L 368.089844 204 L 6.589844 204 Z M 6.589844 33.273438 " clip-rule="nonzero"/></clipPath></defs><g clip-path="url(#39b56a57ef)"><path fill="#2a462d" d="M 21.074219 295.242188 L 354.472656 295.242188 L 354.472656 337.429688 L 21.074219 337.429688 Z M 21.074219 295.242188 " fill-opacity="1" fill-rule="nonzero"/></g><path fill="#2a462d" d="M 187.339844 297.851562 L 21.113281 297.851562 C 21.113281 266.007812 30.042969 236.210938 45.644531 210.933594 C 52.316406 212.976562 59.417969 214.054688 66.839844 214.054688 C 107.507812 214.054688 140.539062 181.03125 140.539062 140.367188 L 140.539062 138.433594 C 155.386719 134.128906 171.09375 131.761719 187.339844 131.761719 C 203.695312 131.761719 219.402344 134.128906 234.355469 138.539062 C 234.25 140.261719 234.140625 141.875 234.140625 143.59375 C 234.140625 184.257812 267.171875 217.28125 307.839844 217.28125 C 315.800781 217.28125 323.441406 215.988281 330.648438 213.730469 C 345.171875 238.472656 353.566406 267.191406 353.566406 297.957031 L 187.339844 297.957031 Z M 187.339844 167.367188 C 214.882812 167.367188 237.152344 189.636719 237.152344 217.171875 C 237.152344 244.710938 214.882812 266.976562 187.339844 266.976562 C 159.796875 266.976562 137.527344 244.710938 137.527344 217.171875 C 137.527344 189.636719 159.796875 167.367188 187.339844 167.367188 Z M 187.339844 167.367188 " fill-opacity="1" fill-rule="evenodd"/><g clip-path="url(#5f6401e08d)"><path fill="#2a462d" d="M 120.417969 112.832031 C 124.722656 121.113281 127.089844 130.472656 127.089844 140.476562 C 127.089844 173.714844 100.085938 200.714844 66.839844 200.714844 C 33.59375 200.714844 6.589844 173.714844 6.589844 140.476562 C 6.589844 129.828125 9.386719 119.929688 14.121094 111.21875 C 35.53125 66.253906 104.925781 33.335938 187.339844 33.335938 C 279.972656 33.335938 356.253906 74.964844 366.152344 128.535156 C 367.445312 133.375 368.089844 138.433594 368.089844 143.59375 C 368.089844 176.835938 341.085938 203.835938 307.839844 203.835938 C 274.59375 203.835938 247.589844 176.835938 247.589844 143.59375 C 247.589844 132.730469 250.496094 122.621094 255.445312 113.90625 C 240.917969 100.675781 215.851562 91.960938 187.339844 91.960938 C 159.582031 91.960938 135.050781 100.246094 120.417969 112.832031 Z M 120.417969 112.832031 " fill-opacity="1" fill-rule="evenodd"/></g></svg>