<svg xmlns="http://www.w3.org/2000/svg" xmlns:xlink="http://www.w3.org/1999/xlink" width="500" zoomAndPan="magnify" viewBox="0 0 375 374.999991" height="500" preserveAspectRatio="xMidYMid meet" version="1.0"><defs><g/><clipPath id="25e414a534"><path d="M 187.5 0 C 83.945312 0 0 83.945312 0 187.5 C 0 291.054688 83.945312 375 187.5 375 C 291.054688 375 375 291.054688 375 187.5 C 375 83.945312 291.054688 0 187.5 0 " clip-rule="nonzero"/></clipPath><clipPath id="400b59f932"><path d="M 23 35 L 349 35 L 349 183 L 23 183 Z M 23 35 " clip-rule="nonzero"/></clipPath><clipPath id="6a0abd8291"><path d="M 370.210938 136.671875 L 183 317.457031 L 2.214844 130.25 L 189.425781 -50.535156 Z M 370.210938 136.671875 " clip-rule="nonzero"/></clipPath><clipPath id="ceb2a19d53"><path d="M 370.210938 136.671875 L 183 317.457031 L 2.214844 130.25 L 189.425781 -50.535156 Z M 370.210938 136.671875 " clip-rule="nonzero"/></clipPath><clipPath id="e12d333b44"><path d="M 370.210938 136.671875 L 183 317.457031 L 2.214844 130.25 L 189.425781 -50.535156 Z M 370.210938 136.671875 " clip-rule="nonzero"/></clipPath></defs><g clip-path="url(#25e414a534)"><rect x="-37.5" width="450" fill="#fffcd3" y="-37.499999" height="449.999989" fill-opacity="1"/></g><g clip-path="url(#400b59f932)"><g clip-path="url(#6a0abd8291)"><g clip-path="url(#ceb2a19d53)"><g clip-path="url(#e12d333b44)"><path fill="#000000" d="M 52.601562 177.789062 C 47.707031 175.457031 43.125 172.304688 39.039062 168.320312 C 38.632812 167.957031 38.257812 167.566406 37.863281 167.160156 C 18.183594 146.78125 18.75 114.28125 39.132812 94.601562 C 122.136719 14.441406 254.402344 16.75 334.5625 99.757812 C 354.242188 120.136719 353.675781 152.636719 333.296875 172.316406 C 332.890625 172.710938 332.5 173.085938 332.082031 173.433594 C 327.859375 177.277344 323.152344 180.28125 318.183594 182.441406 L 246.386719 135.824219 C 246.355469 135.792969 246.355469 135.765625 246.371094 135.722656 L 260.757812 99.757812 L 260.800781 99.652344 C 214.84375 75.402344 159.628906 74.4375 112.847656 97.070312 L 112.894531 97.175781 L 126.011719 133.648438 L 52.601562 177.789062 " fill-opacity="1" fill-rule="nonzero"/></g></g></g></g><g fill="#000000" fill-opacity="1"><g transform="translate(205.89746, 283.963799)"><g><path d="M 20.925781 -3.964844 L 15.855469 -3.964844 L 19.976562 -23.148438 L 48.035156 -23.148438 L 51.367188 -3.964844 L 45.34375 -3.964844 L 45.34375 0 L 74.988281 0 L 74.988281 -3.964844 L 69.28125 -3.964844 L 45.183594 -113.195312 L 35.671875 -113.195312 L 8.878906 -3.964844 L 2.0625 -3.964844 L 2.0625 0 L 20.925781 0 Z M 32.339844 -73.71875 L 34.085938 -84.660156 L 46.769531 -27.425781 L 21.5625 -27.425781 Z M 32.339844 -73.71875 "/></g></g></g><g fill="#000000" fill-opacity="1"><g transform="translate(95.252422, 283.959301)"><g><path d="M 67.238281 -3.964844 C 64.699219 -3.964844 64.066406 -6.976562 64.066406 -9.992188 L 64.066406 -30.921875 C 64.066406 -39.011719 60.734375 -44.71875 57.40625 -48.527344 C 55.503906 -50.746094 53.28125 -52.648438 50.746094 -54.234375 C 50.429688 -54.394531 50.269531 -54.550781 50.269531 -55.027344 C 50.269531 -55.503906 50.429688 -55.660156 50.902344 -55.820312 C 53.28125 -56.929688 55.503906 -58.675781 57.40625 -61.371094 C 60.578125 -65.8125 63.90625 -73.105469 63.90625 -86.425781 C 63.90625 -104.820312 50.269531 -113.226562 34.886719 -113.226562 L 7.453125 -113.226562 L 7.453125 -109.261719 L 13.003906 -109.261719 L 13.003906 -3.964844 L 7.613281 -3.964844 L 7.613281 0 L 32.507812 0 L 32.507812 -3.964844 L 29.019531 -3.964844 L 29.019531 -52.808594 L 35.046875 -52.808594 C 43.769531 -52.808594 46.78125 -43.769531 46.78125 -38.058594 C 46.941406 -37.902344 46.941406 -37.425781 46.941406 -36.949219 L 46.941406 -16.175781 C 46.941406 -2.695312 53.601562 1.585938 63.433594 1.585938 C 67.871094 1.585938 70.566406 0.476562 71.359375 -0.792969 L 69.773438 -4.597656 C 69.140625 -4.125 68.347656 -3.964844 67.238281 -3.964844 Z M 46.78125 -76.910156 C 46.78125 -65.492188 42.5 -57.089844 35.046875 -57.089844 L 29.019531 -57.089844 L 29.019531 -108.945312 L 35.046875 -108.945312 C 43.132812 -108.945312 46.78125 -99.113281 46.78125 -90.230469 Z M 46.78125 -76.910156 "/></g></g></g><g fill="#000000" fill-opacity="1"><g transform="translate(13.989058, 235.631546)"><g><path d="M 7.621094 20.039062 L 14.523438 11.554688 C 16.789062 14.203125 19.679688 14.921875 22.917969 13.691406 C 27.71875 11.867188 28.714844 7.347656 27.042969 2.953125 L 23.644531 -5.980469 L 1 2.632812 L 2.78125 7.316406 L 10.910156 4.226562 L 11.988281 7.058594 L 5.644531 14.835938 Z M 16.730469 6.480469 L 15.246094 2.574219 L 21 0.386719 L 22.472656 4.261719 C 23.144531 6.023438 23.195312 8.15625 21.027344 8.980469 C 18.886719 9.796875 17.390625 8.214844 16.730469 6.480469 Z M 16.730469 6.480469 "/></g></g></g><g fill="#000000" fill-opacity="1"><g transform="translate(32.749914, 276.823792)"><g><path d="M 21.503906 -11.503906 L 1.605469 2.3125 L 10.691406 15.402344 L 14.53125 12.738281 L 8.265625 3.714844 L 12.5625 0.734375 L 18.136719 8.765625 L 22 6.082031 L 16.425781 -1.949219 L 20.464844 -4.753906 L 26.691406 4.21875 L 30.554688 1.535156 Z M 21.503906 -11.503906 "/></g></g></g><g fill="#000000" fill-opacity="1"><g transform="translate(59.481799, 310.644139)"><g><path d="M 5.921875 5.257812 L 9.648438 8.5625 L 22.503906 -5.921875 L 27.941406 -1.09375 L 31.167969 -4.726562 L 16.566406 -17.6875 L 13.34375 -14.054688 L 18.78125 -9.226562 Z M 5.921875 5.257812 "/></g></g></g><g fill="#000000" fill-opacity="1"><g transform="translate(93.72281, 337.474175)"><g><path d="M 19 9.929688 L 18.535156 -0.996094 C 21.984375 -0.519531 24.625 -1.894531 26.230469 -4.96875 C 28.609375 -9.519531 26.355469 -13.558594 22.1875 -15.738281 L 13.714844 -20.164062 L 2.496094 1.304688 L 6.9375 3.625 L 10.964844 -4.078125 L 13.652344 -2.675781 L 14.066406 7.351562 Z M 16.816406 -6.257812 L 13.113281 -8.191406 L 15.964844 -13.648438 L 19.640625 -11.726562 C 21.3125 -10.855469 22.765625 -9.292969 21.691406 -7.234375 C 20.628906 -5.207031 18.460938 -5.398438 16.816406 -6.257812 Z M 16.816406 -6.257812 "/></g></g></g><g fill="#000000" fill-opacity="1"><g transform="translate(135.287872, 356.151316)"><g><path d="M 3.902344 -11.527344 C 2.398438 -4.699219 6.65625 1.847656 13.457031 3.34375 C 20.253906 4.839844 26.976562 0.648438 28.492188 -6.238281 C 29.988281 -13.039062 25.746094 -19.515625 18.945312 -21.011719 C 12.148438 -22.511719 5.398438 -18.324219 3.902344 -11.527344 Z M 8.921875 -10.453125 C 9.820312 -14.53125 13.761719 -17.179688 17.839844 -16.28125 C 21.921875 -15.382812 24.382812 -11.324219 23.488281 -7.246094 C 22.589844 -3.167969 18.640625 -0.488281 14.5625 -1.386719 C 10.480469 -2.285156 8.023438 -6.375 8.921875 -10.453125 Z M 8.921875 -10.453125 "/></g></g></g><g fill="#000000" fill-opacity="1"><g transform="translate(184.89162, 363.413594)"><g/></g></g><g fill="#000000" fill-opacity="1"><g transform="translate(214.945422, 361.804711)"><g><path d="M 4.894531 -1.074219 L 5.601562 -6.230469 L 16.089844 -8.53125 L 18.917969 -4.144531 L 23.964844 -5.253906 L 9.710938 -26.929688 L 3.820312 -25.636719 L -0.03125 0.0078125 Z M 7.761719 -21.527344 L 13.433594 -12.699219 L 6.300781 -11.136719 Z M 7.761719 -21.527344 "/></g></g></g><g fill="#000000" fill-opacity="1"><g transform="translate(260.494849, 348.767603)"><g><path d="M 15.085938 -18.792969 L 8.457031 -31.632812 L 4.058594 -29.359375 L 10.773438 -16.359375 C 12.179688 -13.636719 11.605469 -11.042969 8.855469 -9.621094 C 6.519531 -8.414062 3.925781 -8.921875 2.277344 -12.109375 L -4.351562 -25.015625 L -8.832031 -22.703125 L -2.117188 -9.699219 C 0.5625 -4.503906 5.078125 -2.238281 11.042969 -5.320312 C 16.871094 -8.328125 17.925781 -13.296875 15.085938 -18.792969 Z M 15.085938 -18.792969 "/></g></g></g><g fill="#000000" fill-opacity="1"><g transform="translate(301.256246, 324.372744)"><g><path d="M 9.460938 -25.105469 C 4.332031 -30.726562 -2.535156 -30.488281 -8.773438 -24.792969 L -14.253906 -19.789062 L 2.078125 -1.898438 L 7.492188 -6.84375 C 13.824219 -12.621094 14.324219 -19.78125 9.460938 -25.105469 Z M 5.667969 -21.640625 C 8.882812 -18.125 8.117188 -13.820312 4.417969 -10.441406 L 2.589844 -8.773438 L -7.363281 -19.671875 L -5.488281 -21.382812 C -1.96875 -24.59375 2.457031 -25.160156 5.667969 -21.640625 Z M 5.667969 -21.640625 "/></g></g></g><g fill="#000000" fill-opacity="1"><g transform="translate(334.143, 289.878743)"><g><path d="M -15.402344 -20.269531 L -18.265625 -16.15625 L 1.609375 -2.308594 L 4.472656 -6.421875 Z M -15.402344 -20.269531 "/></g></g></g><g fill="#000000" fill-opacity="1"><g transform="translate(351.800997, 261.718025)"><g><path d="M -10.746094 -5.710938 C -4.25 -3.125 2.894531 -6.273438 5.46875 -12.742188 C 8.042969 -19.207031 4.992188 -26.515625 -1.5625 -29.125 C -8.027344 -31.699219 -15.105469 -28.554688 -17.679688 -22.089844 C -20.253906 -15.621094 -17.214844 -8.285156 -10.746094 -5.710938 Z M -8.875 -10.492188 C -12.757812 -12.039062 -14.734375 -16.355469 -13.191406 -20.234375 C -11.644531 -24.117188 -7.242188 -25.890625 -3.363281 -24.347656 C 0.519531 -22.804688 2.523438 -18.476562 0.980469 -14.59375 C -0.5625 -10.714844 -4.996094 -8.949219 -8.875 -10.492188 Z M -8.875 -10.492188 "/></g></g></g><path stroke-linecap="butt" transform="matrix(0.000000000000000213, -0.751013, 0.75, 0.000000000000000212, 186.268967, 310.650594)" fill="none" stroke-linejoin="miter" d="M -0.00232985 2.500752 L 219.706016 2.500752 " stroke="#000000" stroke-width="5" stroke-opacity="1" stroke-miterlimit="4"/></svg>