<svg xmlns="http://www.w3.org/2000/svg" xmlns:xlink="http://www.w3.org/1999/xlink" width="500" zoomAndPan="magnify" viewBox="0 0 375 374.999991" height="500" preserveAspectRatio="xMidYMid meet" version="1.0"><defs><g/><clipPath id="88b6a37e6c"><path d="M 21.074219 295.242188 L 354.195312 295.242188 L 354.195312 337.5 L 21.074219 337.5 Z M 21.074219 295.242188 " clip-rule="nonzero"/></clipPath><clipPath id="8e6acb613e"><path d="M 6.589844 33.273438 L 368.089844 33.273438 L 368.089844 204 L 6.589844 204 Z M 6.589844 33.273438 " clip-rule="nonzero"/></clipPath></defs><g clip-path="url(#88b6a37e6c)"><path fill="#000000" d="M 21.074219 295.242188 L 354.472656 295.242188 L 354.472656 337.429688 L 21.074219 337.429688 Z M 21.074219 295.242188 " fill-opacity="1" fill-rule="nonzero"/></g><path fill="#000000" d="M 187.339844 297.851562 L 21.113281 297.851562 C 21.113281 266.007812 30.042969 236.210938 45.644531 210.933594 C 52.316406 212.976562 59.417969 214.054688 66.839844 214.054688 C 107.507812 214.054688 140.539062 181.03125 140.539062 140.367188 L 140.539062 138.433594 C 155.386719 134.128906 171.09375 131.761719 187.339844 131.761719 C 203.695312 131.761719 219.402344 134.128906 234.355469 138.539062 C 234.25 140.261719 234.140625 141.875 234.140625 143.59375 C 234.140625 184.257812 267.171875 217.28125 307.839844 217.28125 C 315.800781 217.28125 323.441406 215.988281 330.648438 213.730469 C 345.171875 238.472656 353.566406 267.191406 353.566406 297.957031 L 187.339844 297.957031 Z M 187.339844 167.367188 C 214.882812 167.367188 237.152344 189.636719 237.152344 217.171875 C 237.152344 244.710938 214.882812 266.976562 187.339844 266.976562 C 159.796875 266.976562 137.527344 244.710938 137.527344 217.171875 C 137.527344 189.636719 159.796875 167.367188 187.339844 167.367188 Z M 187.339844 167.367188 " fill-opacity="1" fill-rule="evenodd"/><g clip-path="url(#8e6acb613e)"><path fill="#000000" d="M 120.417969 112.832031 C 124.722656 121.113281 127.089844 130.472656 127.089844 140.476562 C 127.089844 173.714844 100.085938 200.714844 66.839844 200.714844 C 33.59375 200.714844 6.589844 173.714844 6.589844 140.476562 C 6.589844 129.828125 9.386719 119.929688 14.121094 111.21875 C 35.53125 66.253906 104.925781 33.335938 187.339844 33.335938 C 279.972656 33.335938 356.253906 74.964844 366.152344 128.535156 C 367.445312 133.375 368.089844 138.433594 368.089844 143.59375 C 368.089844 176.835938 341.085938 203.835938 307.839844 203.835938 C 274.59375 203.835938 247.589844 176.835938 247.589844 143.59375 C 247.589844 132.730469 250.496094 122.621094 255.445312 113.90625 C 240.917969 100.675781 215.851562 91.960938 187.339844 91.960938 C 159.582031 91.960938 135.050781 100.246094 120.417969 112.832031 Z M 120.417969 112.832031 " fill-opacity="1" fill-rule="evenodd"/></g><g fill="#ccffd2" fill-opacity="1"><g transform="translate(80.650271, 119.441853)"><g><path d="M -9.1875 -25.417969 C -9.9375 -26.824219 -10.792969 -28.261719 -11.542969 -29.667969 C -12.332031 -31.144531 -12.949219 -32.621094 -13.738281 -34.097656 C -14.488281 -35.503906 -15.410156 -36.90625 -16.164062 -38.316406 L -18.492188 -42.671875 C -19.242188 -44.078125 -19.964844 -45.589844 -20.714844 -46.996094 C -20.894531 -47.332031 -21.039062 -47.597656 -21.113281 -47.902344 C -21.191406 -48.207031 -21.097656 -48.515625 -20.964844 -48.757812 C -20.835938 -48.996094 -20.601562 -49.039062 -20.367188 -49.25 C -19.867188 -49.601562 -19.367188 -49.957031 -18.832031 -50.242188 C -17.089844 -51.171875 -15.238281 -51.902344 -13.496094 -52.832031 C -10.648438 -54.441406 -8.609375 -55.617188 -8.304688 -55.695312 C -7.96875 -55.871094 -7.671875 -56.117188 -7.402344 -56.261719 L -6.867188 -56.546875 C -6.628906 -56.589844 -6.390625 -56.628906 -6.257812 -56.699219 C -5.621094 -56.957031 -4.941406 -56.972656 -4.332031 -57.125 C -3.726562 -57.277344 -3.117188 -57.429688 -2.472656 -57.515625 L -1.320312 -57.617188 C -1.082031 -57.65625 -0.707031 -57.597656 -0.433594 -57.570312 C -0.132812 -57.648438 0.140625 -57.621094 0.378906 -57.660156 C 0.480469 -57.628906 0.578125 -57.769531 0.644531 -57.804688 L 2.65625 -57.585938 C 2.964844 -57.492188 3.378906 -57.371094 3.753906 -57.3125 C 4.0625 -57.21875 4.472656 -57.09375 4.847656 -57.035156 C 5.257812 -56.910156 5.574219 -56.648438 5.984375 -56.523438 C 6.429688 -56.328125 6.976562 -56.277344 7.460938 -56.019531 C 7.804688 -55.855469 8.183594 -55.628906 8.5625 -55.402344 C 9.011719 -55.210938 9.390625 -54.984375 9.769531 -54.753906 L 9.980469 -54.523438 C 10.5 -54.195312 10.921875 -53.730469 11.40625 -53.304688 C 11.859375 -52.941406 12.175781 -52.507812 12.5625 -52.109375 C 12.875 -51.847656 13.222656 -51.515625 13.46875 -51.21875 C 13.820312 -50.886719 13.964844 -50.449219 14.25 -50.082031 C 14.390625 -49.816406 14.734375 -49.652344 14.914062 -49.320312 C 14.914062 -49.320312 14.847656 -49.285156 14.847656 -49.285156 L 15.5625 -47.941406 C 15.707031 -47.675781 15.785156 -47.371094 15.925781 -47.101562 C 16.035156 -46.902344 16.105469 -46.769531 16.175781 -46.632812 L 16.691406 -45.1875 C 16.804688 -44.816406 16.984375 -44.480469 17.09375 -44.109375 C 17.210938 -43.570312 17.160156 -43.023438 17.207031 -42.445312 C 17.253906 -42.039062 17.402344 -41.601562 17.445312 -41.195312 C 17.386719 -40.820312 17.433594 -40.414062 17.441406 -40.074219 C 17.453125 -39.734375 17.5625 -39.363281 17.574219 -39.023438 C 17.550781 -38.582031 17.390625 -38.238281 17.332031 -37.859375 C 17.277344 -37.316406 17.226562 -36.769531 17.136719 -36.292969 C 17.140625 -36.121094 17.175781 -36.054688 17.25 -35.921875 C 17.289062 -35.683594 17.328125 -35.449219 17.570312 -35.316406 C 17.8125 -35.1875 18.054688 -35.058594 18.363281 -34.964844 C 18.882812 -34.640625 19.496094 -34.453125 20.015625 -34.125 C 20.433594 -33.832031 20.882812 -33.46875 21.234375 -33.140625 C 21.511719 -32.941406 21.820312 -32.847656 22.027344 -32.617188 C 22.480469 -32.253906 22.730469 -31.785156 23.152344 -31.320312 C 23.433594 -30.957031 23.953125 -30.628906 24.167969 -30.226562 C 24.378906 -29.996094 24.421875 -29.589844 24.566406 -29.320312 L 25.210938 -28.113281 C 26.105469 -26.4375 27.066406 -24.800781 27.925781 -23.191406 C 28.820312 -21.515625 29.71875 -19.839844 30.578125 -18.230469 L 30.863281 -17.695312 C 30.902344 -17.457031 30.945312 -17.222656 30.882812 -17.015625 L 30.789062 -16.707031 C 30.65625 -16.464844 30.425781 -16.253906 30.226562 -16.148438 C 30.15625 -16.113281 30.15625 -16.113281 30.089844 -16.078125 L 23.253906 -12.425781 C 23.054688 -12.316406 22.816406 -12.277344 22.582031 -12.234375 C 22.171875 -12.191406 21.730469 -12.214844 21.449219 -12.578125 C 21.378906 -12.714844 21.402344 -12.984375 21.332031 -13.121094 C 20.507812 -14.660156 19.617188 -16.167969 18.796875 -17.707031 C 17.972656 -19.25 17.214844 -20.828125 16.390625 -22.367188 C 16.109375 -22.734375 15.726562 -23.132812 15.511719 -23.535156 C 15.121094 -24.101562 14.765625 -24.601562 14.316406 -24.964844 C 13.9375 -25.191406 13.585938 -25.523438 13.175781 -25.648438 C 12.660156 -25.804688 12.152344 -25.789062 11.574219 -25.738281 C 11.300781 -25.765625 11.035156 -25.625 10.796875 -25.582031 C 10.359375 -25.433594 9.851562 -25.421875 9.449219 -25.207031 L 9.382812 -25.171875 C 8.84375 -24.882812 8.34375 -24.53125 7.742188 -24.207031 C 7.207031 -23.921875 6.703125 -23.570312 6.101562 -23.246094 L 5.230469 -22.78125 C 5.132812 -22.640625 4.828125 -22.566406 4.765625 -22.359375 C 4.734375 -22.257812 4.703125 -22.15625 4.738281 -22.085938 C 4.742188 -21.917969 4.851562 -21.714844 4.957031 -21.515625 C 5.644531 -20.074219 6.566406 -18.667969 7.316406 -17.261719 C 8.070312 -15.855469 8.789062 -14.34375 9.542969 -12.9375 C 10.292969 -11.53125 11.148438 -10.089844 11.902344 -8.683594 C 12.007812 -8.484375 11.945312 -8.277344 11.984375 -8.039062 C 12.128906 -7.773438 12.207031 -7.46875 12.007812 -7.191406 C 11.976562 -7.089844 11.878906 -6.949219 11.714844 -6.777344 C 11.582031 -6.703125 11.414062 -6.53125 11.214844 -6.421875 C 9.003906 -5.242188 6.820312 -4.160156 4.675781 -3.015625 C 4.476562 -2.910156 4.28125 -2.632812 4.109375 -2.625 C 3.671875 -2.480469 3.292969 -2.707031 2.941406 -3.035156 L 2.421875 -3.53125 C 2.347656 -3.667969 2.375 -3.9375 2.304688 -4.074219 L -0.5625 -9.433594 C -1.527344 -11.246094 -2.457031 -12.988281 -3.425781 -14.796875 L -6.253906 -20.089844 C -7.222656 -21.898438 -8.21875 -23.605469 -9.1875 -25.417969 Z M -3.847656 -38 C -3.027344 -36.460938 -2.171875 -35.023438 -1.347656 -33.480469 C -1.238281 -33.28125 -1.199219 -33.042969 -1.054688 -32.773438 L -0.984375 -32.640625 C -0.914062 -32.507812 -0.742188 -32.511719 -0.707031 -32.445312 C -0.570312 -32.347656 -0.464844 -32.316406 -0.261719 -32.253906 C -0.0898438 -32.257812 0.113281 -32.195312 0.316406 -32.300781 L 1.925781 -33.160156 C 2.425781 -33.515625 2.996094 -33.734375 3.496094 -34.085938 C 3.765625 -34.230469 4.136719 -34.34375 4.367188 -34.554688 C 4.96875 -35.046875 5.289062 -35.734375 5.710938 -36.390625 C 5.941406 -36.769531 6.304688 -37.054688 6.429688 -37.464844 C 6.523438 -37.773438 6.617188 -38.082031 6.675781 -38.457031 C 6.800781 -38.867188 6.75 -39.445312 6.773438 -39.886719 C 6.796875 -40.328125 6.683594 -40.699219 6.636719 -41.105469 C 6.59375 -41.511719 6.546875 -41.921875 6.332031 -42.324219 C 6.257812 -42.625 6.285156 -42.898438 6.140625 -43.167969 C 6.027344 -43.539062 5.75 -43.734375 5.574219 -44.070312 C 5.253906 -44.503906 4.90625 -44.832031 4.523438 -45.230469 C 4.171875 -45.5625 3.722656 -45.921875 3.238281 -46.183594 L 2.136719 -46.628906 C 1.792969 -46.789062 1.320312 -46.707031 0.945312 -46.765625 C 0.503906 -46.789062 0.125 -46.84375 -0.316406 -46.867188 L -1.46875 -46.769531 C -1.773438 -46.691406 -2.007812 -46.652344 -2.277344 -46.507812 C -2.449219 -46.503906 -2.71875 -46.53125 -2.855469 -46.460938 C -3.054688 -46.351562 -3.289062 -46.140625 -3.488281 -46.035156 L -6.101562 -44.636719 C -6.234375 -44.566406 -6.335938 -44.425781 -6.46875 -44.355469 C -6.738281 -44.210938 -6.726562 -43.871094 -6.6875 -43.636719 C -6.507812 -43.300781 -6.5 -42.960938 -6.320312 -42.625 Z M -3.847656 -38 "/></g></g></g><g fill="#ccffd2" fill-opacity="1"><g transform="translate(123.616224, 98.050656)"><g><path d="M -5.199219 -27.152344 C -5.335938 -27.667969 -5.398438 -28.203125 -5.386719 -28.753906 C -5.792969 -28.804688 -5.761719 -32.269531 -5.75 -32.824219 C -5.855469 -35.308594 -5.503906 -37.839844 -4.945312 -40.1875 C -4.640625 -41.132812 -4.359375 -42.148438 -3.964844 -43.039062 C -3.164062 -45.058594 -2.066406 -47.152344 -0.800781 -48.902344 C -0.636719 -49.179688 -0.457031 -49.386719 -0.273438 -49.589844 C -0.21875 -49.683594 -0.09375 -49.796875 -0.0585938 -49.964844 L 1.8125 -52.105469 C 1.941406 -52.21875 2.234375 -52.296875 2.34375 -52.480469 C 2.542969 -52.613281 2.726562 -52.820312 2.925781 -52.949219 C 2.980469 -53.042969 2.941406 -53.191406 3.015625 -53.210938 C 2.996094 -53.28125 3.089844 -53.230469 3.164062 -53.25 C 3.269531 -53.433594 3.453125 -53.640625 3.652344 -53.769531 C 3.761719 -53.957031 3.980469 -54.015625 4.089844 -54.199219 C 4.238281 -54.238281 4.273438 -54.40625 4.34375 -54.425781 C 4.671875 -54.667969 5.023438 -54.839844 5.277344 -55.0625 C 5.550781 -55.214844 5.898438 -55.386719 6.15625 -55.609375 C 6.300781 -55.648438 6.316406 -55.886719 6.464844 -55.925781 C 6.519531 -56.019531 6.664062 -56.058594 6.8125 -56.097656 C 6.867188 -56.191406 7.03125 -56.15625 7.105469 -56.175781 C 7.234375 -56.285156 7.378906 -56.324219 7.507812 -56.4375 C 7.65625 -56.476562 7.761719 -56.664062 7.890625 -56.773438 C 8.019531 -56.886719 8.164062 -56.925781 8.3125 -56.964844 L 9.683594 -57.71875 C 9.976562 -57.796875 10.34375 -57.894531 10.691406 -58.0625 C 10.914062 -58.121094 11.09375 -58.328125 11.316406 -58.386719 C 11.664062 -58.554688 11.976562 -58.558594 12.324219 -58.730469 C 13.113281 -59.015625 13.980469 -59.007812 14.613281 -58.390625 C 14.820312 -58.210938 14.898438 -57.914062 15.027344 -57.714844 C 15.503906 -56.503906 15.910156 -55.273438 16.238281 -54.027344 C 16.429688 -53.292969 16.625 -52.554688 16.726562 -51.875 C 17.019531 -50.460938 17.074219 -49.0625 15.519531 -48.414062 L 15.222656 -48.335938 C 15.097656 -48.222656 14.929688 -48.257812 14.78125 -48.21875 L 13.8125 -47.726562 C 9.804688 -45.648438 6.59375 -41.738281 5.46875 -37.355469 C 5.398438 -37.023438 5.476562 -36.726562 5.40625 -36.394531 L 5.25 -35.804688 C 5.289062 -35.65625 5.453125 -35.621094 5.472656 -35.546875 C 5.511719 -35.402344 5.476562 -35.234375 5.664062 -35.128906 C 5.777344 -35 5.960938 -34.890625 6.128906 -34.855469 C 6.441406 -34.859375 6.640625 -34.992188 6.9375 -35.070312 C 7.230469 -35.148438 7.617188 -35.171875 7.910156 -35.25 C 7.984375 -35.269531 7.984375 -35.269531 7.984375 -35.269531 L 8.203125 -35.324219 C 8.257812 -35.417969 8.371094 -35.292969 8.445312 -35.3125 C 9.839844 -35.679688 11.238281 -36.046875 12.613281 -36.488281 C 13.347656 -36.683594 14.007812 -36.855469 14.652344 -37.105469 C 15.238281 -37.261719 15.863281 -37.269531 16.453125 -37.421875 L 16.597656 -37.460938 C 17.113281 -37.597656 17.847656 -37.792969 18.328125 -37.761719 C 18.421875 -37.707031 18.421875 -37.707031 18.496094 -37.726562 C 19.011719 -37.546875 19.421875 -37.183594 19.632812 -36.691406 C 19.78125 -36.414062 19.878906 -36.046875 19.957031 -35.753906 C 20.09375 -35.242188 20.25 -34.652344 20.382812 -34.136719 L 21.101562 -31.417969 C 21.121094 -31.347656 21.066406 -31.253906 21.066406 -31.253906 C 21.085938 -31.179688 21.253906 -31.144531 21.289062 -31 C 21.503906 -30.191406 21.851562 -28.867188 21.273438 -28.085938 C 20.800781 -27.492188 20.234375 -27.261719 19.570312 -27.085938 C 19.132812 -26.972656 18.765625 -26.875 18.304688 -26.832031 C 16.960938 -26.554688 15.53125 -26.023438 14.207031 -25.671875 C 12.738281 -25.285156 11.324219 -24.992188 9.929688 -24.621094 C 9.632812 -24.542969 9.265625 -24.449219 9.011719 -24.222656 C 8.8125 -24.089844 8.703125 -23.90625 8.667969 -23.738281 C 8.558594 -23.554688 8.523438 -23.386719 8.5625 -23.242188 C 8.601562 -23.09375 8.566406 -22.925781 8.679688 -22.800781 C 8.738281 -22.578125 8.925781 -22.472656 9.128906 -22.289062 C 9.148438 -22.214844 9.167969 -22.140625 9.1875 -22.070312 L 9.933594 -21.324219 C 10.269531 -20.941406 10.808594 -20.6875 11.21875 -20.324219 C 11.925781 -19.726562 12.648438 -19.367188 13.484375 -18.882812 C 13.839844 -18.738281 14.082031 -18.410156 14.453125 -18.191406 C 15.34375 -17.800781 16.582031 -17.574219 17.597656 -17.292969 C 19.019531 -16.960938 20.574219 -16.742188 22.046875 -16.816406 C 22.210938 -16.78125 22.433594 -16.839844 22.652344 -16.898438 C 22.964844 -16.902344 23.261719 -16.980469 23.5 -16.964844 C 23.886719 -16.988281 24.199219 -16.992188 24.605469 -16.941406 C 24.84375 -16.925781 25.03125 -16.820312 25.308594 -16.65625 C 25.496094 -16.546875 25.660156 -16.515625 25.773438 -16.386719 C 26.089844 -16.078125 26.148438 -15.855469 26.207031 -15.636719 C 26.246094 -15.488281 26.285156 -15.34375 26.324219 -15.195312 L 26.402344 -14.902344 C 26.628906 -14.332031 26.785156 -13.746094 26.941406 -13.15625 C 27.113281 -12.496094 27.269531 -11.910156 27.371094 -11.226562 C 27.527344 -10.640625 27.679688 -10.050781 27.761719 -9.445312 C 27.878906 -9.003906 28.125 -8.363281 28.078125 -7.957031 C 28.113281 -7.808594 28.007812 -7.625 27.972656 -7.457031 L 27.789062 -7.253906 C 27.738281 -7.160156 27.535156 -7.027344 27.460938 -7.007812 C 27.078125 -6.671875 26.730469 -6.5 26.363281 -6.40625 C 26.070312 -6.328125 25.777344 -6.25 25.515625 -6.339844 C 25.203125 -6.335938 24.929688 -6.183594 24.636719 -6.105469 C 24.175781 -6.0625 23.714844 -6.019531 23.308594 -6.070312 C 23.234375 -6.050781 23.109375 -5.9375 23.015625 -5.992188 C 22.722656 -5.914062 22.441406 -6.078125 22.128906 -6.074219 C 21.964844 -6.109375 21.78125 -5.902344 21.542969 -5.917969 C 21.15625 -5.894531 20.675781 -5.925781 20.269531 -5.976562 C 19.457031 -6.074219 18.625 -6.25 17.832031 -6.277344 C 17.113281 -6.320312 16.414062 -6.292969 15.75 -6.433594 C 15.582031 -6.46875 15.394531 -6.574219 15.503906 -6.761719 C 15.160156 -6.277344 12.472656 -7.535156 12.121094 -7.675781 C 11.785156 -7.746094 11.472656 -7.742188 11.121094 -7.882812 C 10.84375 -8.046875 10.492188 -8.191406 10.140625 -8.332031 C 9.433594 -8.617188 8.746094 -9.144531 8.023438 -9.503906 C 6.761719 -10.113281 5.402344 -11.089844 4.230469 -11.960938 L 3.429688 -12.613281 C 3.019531 -12.976562 2.738281 -13.453125 2.308594 -13.890625 C 2.101562 -14.070312 1.917969 -14.179688 1.710938 -14.359375 L 1.5625 -14.636719 C 0.925781 -15.253906 0.199219 -15.925781 -0.289062 -16.582031 C -0.835938 -17.460938 -1.507812 -18.226562 -1.960938 -19.050781 L -2.375 -19.726562 C -2.507812 -19.925781 -2.492188 -20.167969 -2.621094 -20.367188 C -2.773438 -20.640625 -2.832031 -20.863281 -2.910156 -21.15625 C -3.058594 -21.429688 -3.339844 -21.59375 -3.488281 -21.867188 C -3.679688 -22.289062 -3.796875 -22.730469 -3.984375 -23.152344 C -4.214844 -23.71875 -4.351562 -24.234375 -4.503906 -24.820312 C -4.773438 -25.539062 -4.984375 -26.34375 -5.199219 -27.152344 Z M -5.199219 -27.152344 "/></g></g></g><g fill="#ccffd2" fill-opacity="1"><g transform="translate(164.966013, 88.124746)"><g><path d="M 22.03125 -22.355469 C 22.25 -16.128906 22.390625 -9.824219 22.535156 -3.519531 C 22.5625 -2.761719 22.589844 -1.925781 22 -1.371094 C 21.5625 -0.902344 20.878906 -0.800781 20.273438 -0.78125 C 18.375 -0.636719 16.554688 -0.574219 14.726562 -0.664062 C 14.042969 -0.640625 13.28125 -0.6875 12.660156 -1.046875 C 11.960938 -1.480469 11.9375 -2.164062 11.988281 -2.925781 C 12.03125 -3.839844 11.921875 -4.824219 11.890625 -5.734375 L 11.671875 -12.039062 C 11.523438 -16.289062 11.378906 -20.464844 11.230469 -24.71875 L 10.679688 -40.589844 C 10.65625 -41.195312 10.558594 -41.878906 10.164062 -42.320312 C 9.695312 -42.683594 9.007812 -42.738281 8.402344 -42.640625 L 5.746094 -42.546875 C 4.683594 -42.511719 3.464844 -42.542969 2.753906 -43.355469 C 2.277344 -43.949219 2.246094 -44.78125 2.21875 -45.542969 C 2.171875 -46.984375 2.117188 -48.503906 2.144531 -49.949219 C 2.105469 -51.011719 2.140625 -52.230469 3.03125 -52.792969 C 3.476562 -53.113281 4.082031 -53.210938 4.691406 -53.230469 C 12.046875 -53.714844 19.414062 -53.96875 26.789062 -53.921875 C 27.320312 -53.941406 27.929688 -53.960938 28.398438 -53.597656 C 28.871094 -53.15625 28.96875 -52.554688 29.0625 -51.949219 C 29.367188 -49.753906 29.445312 -47.550781 29.371094 -45.34375 C 29.3125 -44.808594 29.328125 -44.355469 28.960938 -43.960938 C 28.59375 -43.570312 28.066406 -43.472656 27.535156 -43.378906 C 26.25 -43.257812 24.957031 -43.214844 23.738281 -43.246094 C 23.207031 -43.230469 22.753906 -43.214844 22.300781 -43.046875 C 21.332031 -42.554688 21.300781 -41.261719 21.335938 -40.199219 C 21.542969 -34.277344 21.824219 -28.355469 22.03125 -22.355469 Z M 22.03125 -22.355469 "/></g></g></g><g fill="#ccffd2" fill-opacity="1"><g transform="translate(208.664555, 87.410655)"><g><path d="M 9.148438 -25.429688 C 9.46875 -26.992188 9.726562 -28.644531 10.046875 -30.210938 C 10.382812 -31.847656 10.851562 -33.378906 11.183594 -35.019531 C 11.503906 -36.582031 11.6875 -38.25 12.007812 -39.8125 L 12.996094 -44.652344 C 13.316406 -46.214844 13.726562 -47.835938 14.042969 -49.402344 C 14.121094 -49.773438 14.179688 -50.070312 14.316406 -50.355469 C 14.453125 -50.636719 14.722656 -50.8125 14.972656 -50.917969 C 15.226562 -51.019531 15.4375 -50.902344 15.75 -50.914062 C 16.359375 -50.867188 16.972656 -50.820312 17.566406 -50.699219 C 19.503906 -50.300781 21.390625 -49.683594 23.328125 -49.289062 C 26.542969 -48.710938 28.867188 -48.3125 29.148438 -48.175781 C 29.523438 -48.101562 29.910156 -48.101562 30.207031 -48.039062 L 30.800781 -47.917969 C 31.011719 -47.796875 31.21875 -47.675781 31.367188 -47.648438 C 32.023438 -47.433594 32.558594 -47.015625 33.121094 -46.746094 C 33.6875 -46.476562 34.253906 -46.203125 34.800781 -45.859375 L 35.753906 -45.199219 C 35.960938 -45.078125 36.214844 -44.796875 36.40625 -44.601562 C 36.691406 -44.464844 36.882812 -44.269531 37.089844 -44.152344 C 37.148438 -44.0625 37.3125 -44.105469 37.386719 -44.089844 L 38.796875 -42.640625 C 38.976562 -42.371094 39.210938 -42.011719 39.464844 -41.726562 C 39.644531 -41.457031 39.878906 -41.101562 40.132812 -40.816406 C 40.367188 -40.457031 40.441406 -40.054688 40.679688 -39.695312 C 40.902344 -39.261719 41.285156 -38.875 41.492188 -38.367188 C 41.65625 -38.023438 41.800781 -37.605469 41.949219 -37.1875 C 42.171875 -36.753906 42.320312 -36.335938 42.464844 -35.917969 L 42.480469 -35.605469 C 42.671875 -35.023438 42.699219 -34.398438 42.800781 -33.757812 C 42.917969 -33.191406 42.886719 -32.652344 42.925781 -32.101562 C 43 -31.699219 43.058594 -31.222656 43.058594 -30.835938 C 43.113281 -30.359375 42.949219 -29.925781 42.933594 -29.464844 C 42.871094 -29.167969 43.035156 -28.824219 42.957031 -28.449219 C 42.957031 -28.449219 42.882812 -28.464844 42.882812 -28.464844 L 42.578125 -26.976562 C 42.519531 -26.679688 42.382812 -26.398438 42.320312 -26.097656 C 42.277344 -25.875 42.246094 -25.726562 42.214844 -25.578125 L 41.6875 -24.136719 C 41.539062 -23.777344 41.460938 -23.40625 41.3125 -23.046875 C 41.054688 -22.558594 40.667969 -22.171875 40.335938 -21.695312 C 40.113281 -21.355469 39.945312 -20.921875 39.722656 -20.582031 C 39.4375 -20.328125 39.210938 -19.988281 39.003906 -19.71875 C 38.792969 -19.453125 38.644531 -19.09375 38.433594 -18.828125 C 38.132812 -18.5 37.789062 -18.339844 37.507812 -18.085938 C 37.117188 -17.699219 36.726562 -17.316406 36.355469 -17.003906 C 36.25 -16.871094 36.234375 -16.796875 36.203125 -16.648438 C 36.082031 -16.4375 35.964844 -16.230469 36.066406 -15.976562 C 36.171875 -15.722656 36.273438 -15.46875 36.453125 -15.199219 C 36.644531 -14.617188 37 -14.082031 37.191406 -13.5 C 37.320312 -13.007812 37.4375 -12.441406 37.496094 -11.960938 C 37.585938 -11.632812 37.761719 -11.367188 37.777344 -11.050781 C 37.890625 -10.484375 37.785156 -9.964844 37.8125 -9.339844 C 37.796875 -8.875 37.988281 -8.292969 37.898438 -7.847656 C 37.910156 -7.535156 37.683594 -7.191406 37.625 -6.894531 L 37.351562 -5.554688 C 36.972656 -3.695312 36.664062 -1.816406 36.300781 -0.03125 C 35.921875 1.828125 35.539062 3.691406 35.175781 5.476562 L 35.054688 6.074219 C 34.933594 6.28125 34.8125 6.488281 34.632812 6.609375 L 34.363281 6.785156 C 34.113281 6.890625 33.796875 6.902344 33.574219 6.855469 C 33.5 6.84375 33.5 6.84375 33.425781 6.828125 L 25.832031 5.277344 C 25.609375 5.230469 25.402344 5.109375 25.191406 4.988281 C 24.851562 4.765625 24.523438 4.464844 24.542969 4.003906 C 24.570312 3.855469 24.765625 3.664062 24.796875 3.511719 C 25.144531 1.800781 25.421875 0.0742188 25.769531 -1.636719 C 26.121094 -3.351562 26.546875 -5.046875 26.894531 -6.761719 C 26.910156 -7.222656 26.871094 -7.773438 26.960938 -8.21875 C 27.023438 -8.90625 27.070312 -9.515625 26.953125 -10.082031 C 26.804688 -10.5 26.75 -10.976562 26.511719 -11.335938 C 26.214844 -11.785156 25.8125 -12.097656 25.339844 -12.429688 C 25.144531 -12.625 24.847656 -12.683594 24.640625 -12.804688 C 24.207031 -12.96875 23.808594 -13.285156 23.359375 -13.375 L 23.285156 -13.390625 C 22.691406 -13.511719 22.078125 -13.558594 21.410156 -13.695312 C 20.8125 -13.820312 20.203125 -13.867188 19.535156 -14.003906 L 18.566406 -14.199219 C 18.402344 -14.15625 18.117188 -14.292969 17.941406 -14.171875 C 17.851562 -14.113281 17.761719 -14.054688 17.746094 -13.980469 C 17.640625 -13.847656 17.59375 -13.621094 17.550781 -13.398438 C 17.15625 -11.851562 16.96875 -10.183594 16.648438 -8.621094 C 16.332031 -7.054688 15.921875 -5.433594 15.601562 -3.871094 C 15.285156 -2.308594 15.023438 -0.652344 14.703125 0.910156 C 14.660156 1.132812 14.480469 1.25 14.359375 1.460938 C 14.296875 1.757812 14.164062 2.039062 13.835938 2.128906 C 13.746094 2.1875 13.582031 2.230469 13.34375 2.257812 C 13.195312 2.230469 12.957031 2.257812 12.730469 2.210938 C 10.273438 1.710938 7.90625 1.148438 5.527344 0.664062 C 5.300781 0.617188 4.972656 0.707031 4.839844 0.601562 C 4.410156 0.433594 4.261719 0.015625 4.203125 -0.460938 L 4.117188 -1.175781 C 4.148438 -1.324219 4.34375 -1.515625 4.371094 -1.667969 L 5.589844 -7.621094 C 6 -9.632812 6.394531 -11.566406 6.804688 -13.578125 L 8.007812 -19.457031 C 8.417969 -21.46875 8.738281 -23.417969 9.148438 -25.429688 Z M 21.289062 -31.714844 C 20.9375 -30 20.679688 -28.347656 20.328125 -26.636719 C 20.285156 -26.414062 20.164062 -26.203125 20.101562 -25.90625 L 20.074219 -25.757812 C 20.042969 -25.609375 20.175781 -25.503906 20.160156 -25.429688 C 20.203125 -25.265625 20.265625 -25.175781 20.382812 -24.996094 C 20.515625 -24.890625 20.636719 -24.710938 20.859375 -24.667969 L 22.644531 -24.300781 C 23.253906 -24.253906 23.835938 -24.058594 24.445312 -24.011719 C 24.746094 -23.949219 25.101562 -23.800781 25.414062 -23.8125 C 26.1875 -23.808594 26.875 -24.136719 27.621094 -24.371094 C 28.039062 -24.519531 28.5 -24.5 28.859375 -24.738281 C 29.128906 -24.917969 29.398438 -25.09375 29.683594 -25.347656 C 30.042969 -25.582031 30.371094 -26.058594 30.671875 -26.386719 C 30.96875 -26.710938 31.121094 -27.070312 31.34375 -27.410156 C 31.570312 -27.753906 31.792969 -28.09375 31.886719 -28.539062 C 32.019531 -28.824219 32.214844 -29.015625 32.277344 -29.3125 C 32.425781 -29.671875 32.339844 -30 32.414062 -30.371094 C 32.445312 -30.90625 32.390625 -31.386719 32.347656 -31.9375 C 32.289062 -32.414062 32.171875 -32.980469 31.964844 -33.488281 L 31.402344 -34.535156 C 31.242188 -34.875 30.824219 -35.117188 30.574219 -35.402344 C 30.246094 -35.699219 29.992188 -35.984375 29.667969 -36.285156 L 28.714844 -36.941406 C 28.433594 -37.078125 28.226562 -37.199219 27.929688 -37.257812 C 27.792969 -37.363281 27.601562 -37.558594 27.453125 -37.589844 C 27.230469 -37.636719 26.917969 -37.621094 26.691406 -37.667969 L 23.789062 -38.257812 C 23.640625 -38.289062 23.476562 -38.246094 23.328125 -38.277344 C 23.03125 -38.335938 22.820312 -38.070312 22.699219 -37.863281 C 22.625 -37.488281 22.414062 -37.222656 22.339844 -36.851562 Z M 21.289062 -31.714844 "/></g></g></g><g fill="#ccffd2" fill-opacity="1"><g transform="translate(254.489735, 96.46783)"><g><path d="M 25.484375 14.214844 C 25.484375 14.214844 25.453125 14.113281 25.386719 14.078125 C 24.984375 13.863281 24.511719 13.78125 24.109375 13.566406 C 23.773438 13.390625 23.472656 13.144531 23.175781 12.898438 C 22.90625 12.753906 22.710938 12.476562 22.441406 12.332031 C 22.144531 12.085938 21.910156 11.875 21.613281 11.628906 L 20.246094 10.640625 C 19.847656 10.257812 19.382812 9.835938 19.019531 9.386719 C 18.789062 9.175781 18.59375 8.898438 18.359375 8.6875 C 17.929688 8.199219 17.503906 7.710938 17.109375 7.15625 C 16.777344 6.808594 16.417969 6.359375 16.15625 5.875 C 15.667969 5.183594 15.210938 4.421875 14.757812 3.660156 C 14.367188 2.9375 13.914062 2.175781 13.558594 1.386719 L 12.949219 0.113281 C 12.820312 -0.128906 12.726562 -0.4375 12.632812 -0.746094 C 12.539062 -1.054688 12.511719 -1.328125 12.382812 -1.570312 C 12.351562 -1.671875 12.246094 -1.640625 12.214844 -1.742188 C 12.148438 -1.78125 12.355469 -1.84375 12.324219 -1.945312 C 12.292969 -2.046875 12.089844 -2.15625 12.027344 -2.359375 C 11.972656 -2.738281 11.980469 -3.074219 11.855469 -3.488281 C 11.796875 -3.863281 11.535156 -4.175781 11.476562 -4.550781 L 11.277344 -5.949219 C 11.1875 -6.429688 11.097656 -6.90625 11.074219 -7.347656 L 11.054688 -9.082031 C 10.976562 -9.902344 11.097656 -10.613281 11.117188 -11.460938 C 11.128906 -11.800781 11.238281 -12.171875 11.285156 -12.578125 L 11.46875 -14.375 C 11.59375 -15.253906 11.753906 -16.035156 11.945312 -16.878906 C 12.058594 -17.25 12.273438 -17.652344 12.417969 -18.089844 C 12.460938 -18.324219 12.46875 -18.664062 12.613281 -18.933594 C 12.617188 -19.101562 12.859375 -19.234375 12.863281 -19.402344 C 12.933594 -19.535156 12.9375 -19.707031 13.011719 -19.839844 L 13.238281 -20.753906 C 13.382812 -21.019531 13.558594 -21.1875 13.597656 -21.421875 C 13.703125 -21.625 13.945312 -21.753906 14.019531 -21.886719 C 14.054688 -21.953125 14.058594 -22.125 14.09375 -22.191406 L 14.164062 -22.324219 C 14.273438 -22.527344 14.3125 -22.761719 14.421875 -22.964844 L 14.492188 -23.097656 C 14.5625 -23.230469 14.636719 -23.367188 14.707031 -23.5 L 15.171875 -24.371094 C 15.386719 -24.773438 15.765625 -25 15.980469 -25.402344 C 16.226562 -25.703125 16.375 -26.140625 16.621094 -26.441406 C 16.730469 -26.640625 16.933594 -26.703125 17.042969 -26.90625 C 17.21875 -27.070312 17.359375 -27.335938 17.570312 -27.570312 C 17.851562 -27.9375 18.300781 -28.128906 18.582031 -28.496094 C 18.929688 -28.824219 19.179688 -29.292969 19.566406 -29.691406 C 19.914062 -30.023438 20.464844 -30.246094 20.8125 -30.574219 C 21.265625 -30.9375 21.582031 -31.371094 21.996094 -31.664062 C 22.3125 -31.929688 22.722656 -32.054688 23.101562 -32.28125 C 23.757812 -32.707031 24.320312 -33.269531 25.042969 -33.65625 C 25.664062 -34.015625 26.285156 -34.371094 26.972656 -34.691406 C 27.421875 -34.882812 27.929688 -34.871094 28.378906 -35.0625 C 28.6875 -35.15625 28.964844 -35.351562 29.273438 -35.445312 C 29.308594 -35.511719 29.277344 -35.617188 29.277344 -35.617188 C 29.789062 -35.773438 30.304688 -35.929688 30.851562 -35.980469 C 31.261719 -36.105469 31.707031 -36.296875 32.1875 -36.386719 C 32.394531 -36.449219 32.632812 -36.578125 32.90625 -36.605469 L 33.550781 -36.519531 C 34.027344 -36.609375 34.507812 -36.699219 35.050781 -36.753906 C 35.632812 -36.871094 36.316406 -37.023438 36.929688 -37.042969 L 38.765625 -37.09375 C 39.445312 -37.074219 40.15625 -36.953125 40.867188 -36.832031 C 41.207031 -36.824219 41.617188 -36.949219 41.921875 -36.871094 C 42.328125 -36.828125 42.699219 -36.714844 43.105469 -36.671875 C 44.1875 -36.4375 45.234375 -36.136719 46.242188 -35.769531 C 46.480469 -35.730469 46.820312 -35.722656 47.089844 -35.578125 C 47.390625 -35.5 47.730469 -35.492188 48.066406 -35.3125 C 48.304688 -35.273438 48.535156 -35.0625 48.738281 -34.957031 C 48.90625 -34.949219 49.070312 -34.777344 49.308594 -34.734375 L 50.113281 -34.304688 C 50.179688 -34.269531 50.320312 -34.367188 50.386719 -34.332031 C 50.652344 -34.191406 50.921875 -34.046875 51.191406 -33.902344 L 51.324219 -33.832031 C 51.523438 -33.722656 51.828125 -33.648438 51.996094 -33.472656 C 52.328125 -33.292969 52.628906 -33.046875 52.964844 -32.871094 L 53.433594 -32.621094 C 53.597656 -32.445312 53.902344 -32.367188 54.132812 -32.160156 C 54.402344 -32.015625 54.5625 -31.671875 54.832031 -31.527344 C 55.296875 -31.105469 55.765625 -30.855469 56.230469 -30.4375 C 56.394531 -30.261719 56.664062 -30.117188 56.894531 -29.910156 C 57.492188 -29.417969 58.054688 -28.855469 58.515625 -28.265625 C 58.78125 -27.953125 58.976562 -27.675781 59.207031 -27.464844 L 60.066406 -26.492188 C 60.359375 -26.074219 60.582031 -25.527344 60.878906 -25.109375 C 61.203125 -24.589844 61.632812 -24.105469 61.921875 -23.519531 C 62.085938 -23.171875 62.414062 -22.824219 62.640625 -22.445312 C 62.835938 -21.996094 63.058594 -21.449219 63.214844 -20.933594 L 63.628906 -19.9375 C 63.722656 -19.628906 63.816406 -19.320312 63.945312 -19.078125 C 64.070312 -18.667969 64.164062 -18.359375 64.324219 -18.015625 L 64.578125 -17.363281 C 64.675781 -17.222656 64.570312 -17.023438 64.632812 -16.816406 C 64.695312 -16.609375 64.890625 -16.332031 64.984375 -16.023438 C 65.046875 -15.820312 65.074219 -15.546875 65.101562 -15.273438 C 65.128906 -15 65.050781 -14.699219 65.144531 -14.390625 L 65.316406 -13.261719 C 65.40625 -12.785156 65.53125 -12.371094 65.519531 -11.863281 L 65.691406 -10.738281 C 65.683594 -10.398438 65.703125 -9.953125 65.660156 -9.546875 C 65.683594 -9.105469 65.703125 -8.664062 65.660156 -8.257812 C 65.679688 -7.8125 65.601562 -7.339844 65.519531 -6.867188 C 65.46875 -6.289062 65.316406 -5.683594 65.269531 -5.105469 C 65.117188 -4.496094 65.066406 -3.921875 64.949219 -3.378906 C 64.832031 -2.839844 64.582031 -2.371094 64.464844 -1.828125 C 64.355469 -1.460938 64.175781 -1.125 64.0625 -0.753906 C 63.917969 -0.484375 63.808594 -0.113281 63.628906 0.222656 C 63.625 0.390625 63.621094 0.5625 63.546875 0.695312 C 63.441406 0.894531 63.363281 1.199219 63.257812 1.402344 L 63.222656 1.46875 C 63.078125 1.734375 62.964844 2.105469 62.785156 2.441406 C 62.746094 2.679688 62.4375 2.773438 62.292969 3.039062 C 62.152344 3.308594 62.140625 3.648438 61.964844 3.984375 C 61.820312 4.25 61.640625 4.585938 61.429688 4.820312 C 61.324219 5.019531 61.183594 5.117188 61.011719 5.285156 L 60.761719 5.753906 C 60.652344 5.953125 60.476562 6.117188 60.304688 6.285156 L 59.910156 7.019531 C 59.699219 7.253906 59.421875 7.449219 59.175781 7.75 C 58.753906 8.214844 58.402344 8.714844 58.019531 9.113281 C 57.632812 9.507812 57.21875 9.804688 56.832031 10.203125 C 56.621094 10.433594 56.449219 10.597656 56.238281 10.832031 L 55.371094 11.488281 C 54.816406 11.878906 54.292969 12.375 53.636719 12.800781 C 53.152344 13.058594 52.667969 13.320312 52.152344 13.644531 C 51.667969 13.902344 51.214844 14.265625 50.734375 14.523438 C 50.285156 14.714844 49.910156 14.773438 49.53125 15 C 49.1875 15.160156 48.875 15.425781 48.527344 15.585938 C 48.21875 15.679688 47.980469 15.808594 47.738281 15.9375 C 47.53125 16 47.296875 15.960938 47.089844 16.023438 C 46.574219 16.179688 46.09375 16.4375 45.613281 16.527344 C 45.371094 16.65625 45.070312 16.582031 44.796875 16.605469 C 44.589844 16.667969 44.417969 16.835938 44.3125 16.867188 C 44.039062 16.894531 43.769531 16.917969 43.496094 16.945312 L 42.0625 17.214844 C 41.414062 17.296875 40.800781 17.316406 40.1875 17.332031 C 39.746094 17.355469 39.332031 17.480469 38.890625 17.5 C 38.722656 17.496094 38.585938 17.425781 38.453125 17.355469 C 38.078125 17.410156 37.800781 17.609375 37.460938 17.597656 C 37.054688 17.554688 36.582031 17.472656 36.136719 17.496094 C 35.835938 17.417969 35.5 17.242188 35.160156 17.230469 C 34.277344 17.105469 33.398438 16.980469 32.488281 16.75 C 31.777344 16.628906 31 16.472656 30.324219 16.285156 C 29.820312 16.101562 29.351562 15.851562 28.910156 15.703125 L 27.800781 15.367188 C 27.597656 15.257812 27.324219 15.285156 27.125 15.179688 C 26.886719 15.136719 26.65625 14.929688 26.453125 14.820312 C 26.082031 14.707031 25.820312 14.394531 25.484375 14.214844 Z M 31.296875 5.433594 C 33.074219 6.296875 35.0625 6.929688 37.234375 7.054688 C 39.171875 7.140625 41.222656 6.6875 43.347656 6.097656 C 45.4375 5.40625 47.335938 4.4375 48.898438 3.121094 C 50.53125 1.839844 51.898438 0.246094 53.042969 -1.730469 C 53.71875 -2.832031 54.226562 -4.113281 54.636719 -5.359375 C 54.902344 -6.507812 55.039062 -7.726562 55.070312 -8.914062 C 55.152344 -10.679688 54.960938 -12.421875 54.527344 -14.03125 C 54.316406 -14.917969 54.101562 -15.808594 53.75 -16.601562 C 53.203125 -17.839844 52.453125 -19.015625 51.632812 -20.054688 C 50.878906 -21.0625 50.050781 -21.933594 49.085938 -22.707031 C 48.1875 -23.445312 47.320312 -24.082031 46.316406 -24.617188 C 44.910156 -25.371094 43.394531 -25.921875 41.773438 -26.269531 C 40.417969 -26.476562 39.058594 -26.515625 37.664062 -26.484375 C 36.234375 -26.386719 34.9375 -26.21875 33.601562 -25.8125 C 32.058594 -25.34375 30.511719 -24.707031 29.160156 -23.789062 C 28.089844 -23.070312 27.179688 -22.179688 26.304688 -21.183594 C 25.289062 -20.085938 24.207031 -19.027344 23.527344 -17.753906 C 22.808594 -16.414062 22.464844 -14.960938 22.15625 -13.578125 C 21.8125 -12.125 21.566406 -10.703125 21.628906 -9.207031 C 21.65625 -7.640625 22.058594 -6.136719 22.492188 -4.695312 C 22.96875 -3.324219 23.609375 -1.945312 24.457031 -0.632812 C 25.304688 0.683594 26.296875 1.730469 27.527344 2.816406 C 28.625 3.660156 29.753906 4.609375 31.296875 5.433594 Z M 31.296875 5.433594 "/></g></g></g><g fill="#ccffd2" fill-opacity="1"><g transform="translate(57.811107, 324.189105)"><g><path d="M 34.195312 -26.597656 C 34.195312 -24.925781 34.269531 -23.253906 34.269531 -21.503906 C 34.269531 -19.832031 34.347656 -18.160156 34.347656 -16.488281 L 34.347656 -11.398438 C 34.347656 -9.726562 34.269531 -7.980469 34.269531 -6.308594 C 34.269531 -4.636719 34.195312 -2.964844 34.195312 -1.214844 C 34.195312 -1.0625 34.347656 -0.835938 34.347656 -0.609375 C 34.347656 -0.378906 34.042969 -0.0742188 33.816406 0 L 33.511719 0 C 32.980469 0.0742188 32.371094 0.0742188 31.839844 0.0742188 C 29.558594 0.0742188 27.355469 -0.0742188 25.078125 -0.0742188 C 24.847656 -0.0742188 24.542969 0.0742188 24.316406 0 C 24.089844 -0.0742188 23.9375 -0.378906 23.9375 -0.683594 C 23.859375 -0.910156 23.707031 -1.214844 23.707031 -1.445312 C 23.707031 -2.964844 23.785156 -4.40625 23.785156 -5.925781 C 23.785156 -7.445312 23.9375 -8.890625 23.9375 -10.410156 C 23.9375 -10.5625 23.859375 -10.714844 23.859375 -10.789062 C 23.785156 -11.019531 23.558594 -11.09375 23.40625 -11.171875 L 22.949219 -11.171875 C 20.289062 -11.171875 17.707031 -11.324219 15.121094 -11.324219 C 14.96875 -11.324219 14.816406 -11.324219 14.664062 -11.246094 C 14.4375 -11.246094 14.285156 -11.09375 14.285156 -10.867188 C 14.210938 -10.714844 14.210938 -10.488281 14.210938 -10.335938 C 14.210938 -9.574219 14.132812 -8.816406 14.132812 -8.128906 C 14.132812 -5.773438 14.210938 -3.417969 14.210938 -1.0625 C 14.210938 -0.910156 14.285156 -0.761719 14.285156 -0.609375 C 14.210938 -0.226562 13.90625 0 13.527344 0.0742188 C 13.222656 0.0742188 12.917969 0 12.613281 0 C 10.105469 0 7.597656 -0.0742188 5.089844 -0.0742188 C 4.863281 -0.0742188 4.636719 -0.0742188 4.40625 -0.152344 C 4.179688 -0.226562 3.953125 -0.378906 3.953125 -0.609375 C 3.875 -0.835938 3.800781 -1.0625 3.800781 -1.292969 C 3.800781 -3.191406 3.800781 -5.089844 3.800781 -6.992188 L 3.800781 -12.691406 C 3.800781 -14.589844 3.953125 -16.488281 3.953125 -18.390625 C 3.953125 -20.289062 3.875 -22.1875 3.875 -24.089844 C 3.875 -25.914062 3.875 -27.8125 3.875 -29.710938 L 3.875 -31.078125 C 3.953125 -31.460938 3.953125 -31.839844 4.027344 -32.21875 C 4.027344 -32.597656 4.101562 -33.054688 4.101562 -33.433594 C 4.179688 -34.347656 4.253906 -35.257812 4.484375 -36.09375 C 4.558594 -36.625 4.789062 -37.160156 4.9375 -37.691406 C 5.089844 -38.296875 5.242188 -38.832031 5.472656 -39.4375 C 5.625 -39.96875 5.851562 -40.503906 6.078125 -41.035156 C 6.230469 -41.339844 6.230469 -41.640625 6.382812 -41.945312 C 6.609375 -42.402344 6.839844 -42.78125 7.066406 -43.160156 C 7.21875 -43.464844 7.296875 -43.769531 7.445312 -43.996094 C 7.597656 -44.226562 7.828125 -44.378906 7.980469 -44.605469 C 8.207031 -44.910156 8.28125 -45.214844 8.511719 -45.441406 L 9.269531 -46.351562 C 9.726562 -46.886719 10.183594 -47.339844 10.714844 -47.796875 C 10.941406 -48.023438 11.246094 -48.175781 11.472656 -48.328125 C 11.550781 -48.480469 11.625 -48.710938 11.777344 -48.785156 C 12.082031 -49.011719 12.386719 -49.089844 12.691406 -49.316406 C 13.144531 -49.621094 13.527344 -50.078125 13.980469 -50.304688 L 14.664062 -50.683594 C 14.816406 -50.683594 14.96875 -50.683594 15.046875 -50.761719 C 15.273438 -50.835938 15.425781 -50.988281 15.652344 -51.066406 C 16.035156 -51.292969 16.488281 -51.519531 16.945312 -51.671875 C 17.25 -51.824219 17.554688 -51.902344 17.859375 -51.976562 C 18.390625 -52.128906 18.921875 -52.28125 19.378906 -52.355469 C 20.0625 -52.585938 20.746094 -52.738281 21.351562 -52.886719 C 21.808594 -52.964844 22.265625 -52.886719 22.644531 -52.964844 C 22.949219 -52.964844 23.328125 -53.039062 23.632812 -53.039062 C 24.011719 -53.117188 24.46875 -53.117188 24.847656 -53.117188 C 25.378906 -53.191406 25.835938 -53.269531 26.367188 -53.269531 L 30.394531 -53.269531 C 31.535156 -53.191406 33.738281 -52.8125 34.121094 -51.140625 C 34.5 -49.621094 34.347656 -48.101562 34.347656 -46.582031 C 34.347656 -45.136719 34.347656 -43.769531 34.347656 -42.402344 L 34.347656 -41.871094 C 34.347656 -40.199219 34.269531 -38.449219 34.269531 -36.777344 C 34.269531 -35.105469 34.195312 -33.359375 34.195312 -31.6875 Z M 23.9375 -32.144531 C 23.9375 -33.738281 23.859375 -35.335938 23.859375 -36.929688 C 23.859375 -38.527344 23.785156 -40.121094 23.785156 -41.71875 L 23.785156 -41.945312 C 23.785156 -42.097656 23.785156 -42.25 23.707031 -42.402344 C 23.558594 -42.554688 23.40625 -42.628906 23.253906 -42.628906 C 23.023438 -42.628906 22.871094 -42.476562 22.722656 -42.476562 C 22.417969 -42.402344 22.1875 -42.402344 21.960938 -42.402344 C 21.503906 -42.25 21.125 -42.175781 20.746094 -42.097656 C 20.441406 -42.023438 20.136719 -41.871094 19.910156 -41.792969 C 19.679688 -41.640625 19.378906 -41.640625 19.148438 -41.566406 C 18.542969 -41.261719 18.160156 -40.804688 17.628906 -40.351562 C 17.25 -40.046875 16.871094 -39.742188 16.566406 -39.363281 C 16.261719 -38.90625 16.035156 -38.296875 15.804688 -37.765625 C 15.578125 -37.386719 15.351562 -37.082031 15.199219 -36.625 C 14.96875 -36.019531 14.742188 -35.410156 14.589844 -34.804688 C 14.4375 -34.042969 14.363281 -33.359375 14.285156 -32.597656 C 14.285156 -32.21875 14.363281 -31.839844 14.285156 -31.460938 L 14.285156 -30.242188 C 14.285156 -29.484375 14.132812 -28.722656 14.132812 -27.964844 L 14.132812 -22.570312 C 14.132812 -22.339844 14.210938 -22.1875 14.285156 -22.035156 C 14.285156 -21.808594 14.515625 -21.65625 14.664062 -21.65625 C 14.816406 -21.582031 14.96875 -21.582031 15.121094 -21.582031 C 17.707031 -21.582031 20.363281 -21.582031 22.949219 -21.65625 C 23.101562 -21.65625 23.253906 -21.734375 23.40625 -21.734375 C 23.558594 -21.808594 23.632812 -21.886719 23.707031 -22.113281 L 23.785156 -22.417969 C 23.785156 -24.089844 23.9375 -25.683594 23.9375 -27.28125 Z M 23.9375 -32.144531 "/></g></g></g><g fill="#ccffd2" fill-opacity="1"><g transform="translate(112.827405, 324.189105)"><g><path d="M 33.816406 -33.207031 C 33.816406 -31.15625 34.042969 -29.105469 34.042969 -26.976562 C 34.042969 -24.925781 33.96875 -22.796875 33.96875 -20.746094 L 33.96875 -14.515625 C 33.96875 -14.285156 33.816406 -14.058594 33.816406 -13.828125 C 33.890625 -13.601562 33.96875 -13.449219 33.96875 -13.296875 C 33.96875 -12.917969 33.890625 -12.613281 33.816406 -12.234375 C 33.738281 -11.855469 33.664062 -11.472656 33.585938 -11.171875 L 33.359375 -9.726562 C 33.285156 -9.574219 33.207031 -9.347656 33.207031 -9.195312 C 33.132812 -9.117188 33.054688 -9.042969 33.054688 -8.964844 C 32.902344 -8.585938 32.828125 -8.207031 32.675781 -7.902344 C 32.449219 -7.445312 32.066406 -6.992188 31.761719 -6.535156 C 31.613281 -6.15625 31.460938 -5.773438 31.15625 -5.472656 C 30.925781 -5.167969 30.699219 -4.863281 30.472656 -4.558594 L 29.558594 -3.648438 C 29.332031 -3.496094 29.105469 -3.265625 28.953125 -3.117188 C 28.648438 -2.8125 28.269531 -2.660156 27.964844 -2.355469 C 27.585938 -2.128906 27.203125 -1.824219 26.75 -1.597656 C 26.445312 -1.445312 26.140625 -1.214844 25.761719 -1.0625 C 25.304688 -0.835938 24.925781 -0.53125 24.46875 -0.304688 C 24.164062 -0.226562 23.859375 -0.226562 23.632812 -0.152344 C 23.480469 -0.0742188 23.253906 -0.0742188 23.101562 0 C 23.023438 0 23.023438 0.0742188 22.949219 0.152344 C 22.417969 0.226562 21.960938 0.226562 21.429688 0.226562 C 21.199219 0.304688 20.898438 0.378906 20.667969 0.378906 L 20.363281 0.378906 C 20.289062 0.378906 20.136719 0.457031 20.0625 0.457031 L 20.0625 0.378906 C 19.832031 0.304688 19.605469 0.609375 19.378906 0.53125 C 19.074219 0.53125 18.769531 0.53125 18.390625 0.457031 C 18.085938 0.457031 17.707031 0.457031 17.402344 0.378906 C 17.023438 0.304688 16.640625 0.226562 16.1875 0.152344 L 15.578125 0 C 15.121094 -0.152344 14.664062 -0.378906 14.210938 -0.53125 C 13.679688 -0.761719 13.070312 -0.910156 12.539062 -1.214844 C 12.007812 -1.519531 11.625 -1.976562 11.171875 -2.28125 C 10.789062 -2.507812 10.488281 -2.8125 10.183594 -3.039062 C 9.726562 -3.417969 9.269531 -3.648438 8.890625 -4.027344 C 8.664062 -4.253906 8.511719 -4.710938 8.28125 -4.9375 C 7.980469 -5.320312 7.675781 -5.773438 7.445312 -6.15625 C 7.144531 -6.609375 6.6875 -7.066406 6.460938 -7.597656 C 6.15625 -8.128906 6.078125 -8.816406 5.851562 -9.421875 L 5.546875 -10.410156 C 5.546875 -10.714844 5.394531 -10.941406 5.320312 -11.246094 C 5.242188 -11.472656 5.242188 -11.703125 5.167969 -12.007812 C 5.089844 -12.308594 5.167969 -12.691406 5.167969 -13.070312 C 5.167969 -13.296875 4.9375 -13.527344 4.9375 -13.753906 L 4.9375 -14.285156 C 4.9375 -16.109375 5.015625 -17.933594 5.015625 -19.757812 C 5.015625 -21.503906 5.089844 -23.328125 5.089844 -25.152344 C 5.089844 -26.976562 5.015625 -28.800781 5.015625 -30.546875 C 5.015625 -32.371094 5.015625 -34.195312 5.015625 -36.019531 L 5.015625 -41.414062 C 5.015625 -43.238281 5.089844 -45.0625 5.089844 -46.808594 C 5.089844 -48.632812 5.015625 -50.457031 5.015625 -52.28125 C 5.015625 -52.433594 5.089844 -52.585938 5.167969 -52.8125 C 5.242188 -52.964844 5.242188 -53.191406 5.472656 -53.269531 L 5.699219 -53.269531 C 7.144531 -53.269531 8.585938 -53.117188 9.953125 -53.117188 C 11.398438 -53.117188 12.765625 -53.191406 14.210938 -53.191406 C 14.285156 -53.191406 14.363281 -53.117188 14.515625 -53.117188 C 14.664062 -53.117188 14.894531 -53.039062 14.894531 -52.964844 C 14.96875 -52.8125 14.96875 -52.660156 14.96875 -52.507812 C 14.96875 -52.433594 14.894531 -52.355469 14.894531 -52.28125 C 14.894531 -50.457031 14.96875 -48.710938 14.96875 -46.886719 L 14.96875 -41.566406 C 14.96875 -39.820312 14.816406 -37.996094 14.816406 -36.246094 C 14.816406 -34.421875 14.894531 -32.675781 14.894531 -30.851562 C 14.894531 -29.105469 14.816406 -27.28125 14.816406 -25.53125 L 14.816406 -20.214844 C 14.816406 -18.390625 14.816406 -16.640625 14.816406 -14.816406 L 14.816406 -14.4375 C 14.742188 -14.4375 14.96875 -14.363281 14.96875 -14.285156 C 14.96875 -14.132812 14.816406 -13.980469 14.816406 -13.90625 C 14.894531 -13.679688 14.894531 -13.375 14.96875 -13.144531 C 15.046875 -12.765625 15.199219 -12.386719 15.351562 -12.007812 C 15.5 -11.703125 15.730469 -11.472656 15.957031 -11.171875 C 16.261719 -10.789062 16.640625 -10.488281 17.097656 -10.183594 C 17.476562 -9.953125 17.933594 -9.726562 18.390625 -9.652344 C 18.695312 -9.5 18.996094 -9.421875 19.300781 -9.421875 C 19.832031 -9.421875 20.289062 -9.574219 20.820312 -9.726562 C 21.351562 -9.878906 21.886719 -10.105469 22.339844 -10.488281 C 22.570312 -10.636719 22.722656 -10.789062 22.871094 -10.941406 C 23.023438 -11.09375 23.253906 -11.246094 23.328125 -11.398438 C 23.558594 -11.777344 23.707031 -12.160156 23.785156 -12.539062 C 23.9375 -12.84375 24.089844 -13.144531 24.089844 -13.449219 C 24.089844 -13.679688 24.164062 -13.90625 24.164062 -14.132812 C 24.164062 -14.210938 24.164062 -14.285156 24.164062 -14.285156 L 24.164062 -14.515625 C 24.164062 -14.664062 23.9375 -14.816406 23.9375 -14.96875 C 23.9375 -16.792969 24.089844 -18.542969 24.089844 -20.363281 C 24.089844 -22.113281 24.011719 -23.859375 24.011719 -25.683594 L 24.011719 -31.003906 C 24.011719 -32.75 24.164062 -34.5 24.164062 -36.324219 C 24.164062 -38.070312 24.011719 -39.820312 24.011719 -41.640625 C 24.011719 -43.390625 24.089844 -45.136719 24.089844 -46.960938 C 24.089844 -48.710938 24.164062 -50.457031 24.164062 -52.28125 C 24.164062 -52.433594 24.011719 -52.585938 24.089844 -52.738281 C 24.164062 -53.039062 24.316406 -53.117188 24.621094 -53.117188 C 24.695312 -53.117188 24.773438 -53.269531 24.773438 -53.269531 C 26.214844 -53.269531 27.585938 -53.117188 29.027344 -53.117188 C 30.394531 -53.117188 31.839844 -53.269531 33.207031 -53.269531 C 33.359375 -53.269531 33.433594 -53.269531 33.585938 -53.191406 C 33.738281 -53.191406 33.816406 -53.039062 33.816406 -52.886719 L 33.96875 -52.507812 C 33.96875 -52.433594 33.816406 -52.28125 33.816406 -52.203125 C 33.816406 -50.152344 33.96875 -48.023438 33.96875 -45.898438 C 33.96875 -43.769531 33.890625 -41.640625 33.890625 -39.589844 C 33.890625 -37.460938 33.816406 -35.335938 33.816406 -33.207031 Z M 33.816406 -33.207031 "/></g></g></g><g fill="#ccffd2" fill-opacity="1"><g transform="translate(167.539748, 324.189105)"><g><path d="M 4.101562 -26.671875 C 4.101562 -28.648438 4.027344 -30.625 4.027344 -32.597656 C 4.027344 -34.574219 3.875 -36.550781 3.875 -38.527344 C 3.875 -40.503906 3.875 -42.554688 3.875 -44.53125 L 3.875 -50.457031 C 3.875 -51.214844 4.027344 -52.050781 4.558594 -52.585938 C 5.089844 -53.039062 5.773438 -53.039062 6.382812 -53.039062 C 7.597656 -53.039062 8.816406 -53.117188 9.953125 -53.191406 C 11.550781 -53.191406 13.070312 -53.039062 14.664062 -53.039062 C 16.261719 -52.964844 17.78125 -52.8125 19.378906 -52.585938 C 21.351562 -52.203125 23.328125 -51.824219 25.152344 -50.988281 C 27.050781 -50.230469 28.722656 -49.089844 30.394531 -47.875 C 31.992188 -46.734375 33.585938 -45.367188 34.878906 -43.847656 C 36.246094 -42.324219 37.539062 -40.804688 38.527344 -38.984375 C 39.4375 -37.160156 40.046875 -35.183594 40.503906 -33.207031 C 41.035156 -31.230469 41.339844 -29.257812 41.339844 -27.203125 C 41.414062 -25.152344 41.261719 -23.101562 40.882812 -21.125 C 40.503906 -19.148438 39.820312 -17.25 38.90625 -15.351562 C 38.070312 -13.527344 36.855469 -11.929688 35.5625 -10.335938 C 34.347656 -8.738281 32.902344 -7.371094 31.308594 -6.078125 C 29.710938 -4.789062 28.039062 -3.648438 26.214844 -2.8125 C 24.390625 -1.898438 22.492188 -1.214844 20.515625 -0.761719 C 18.3125 -0.304688 16.109375 -0.226562 13.90625 -0.152344 C 11.703125 -0.152344 9.5 -0.226562 7.21875 -0.304688 C 6.382812 -0.378906 5.394531 -0.152344 4.710938 -0.609375 C 4.027344 -1.0625 3.875 -1.898438 3.875 -2.8125 C 3.875 -3.570312 3.953125 -4.332031 3.953125 -4.9375 C 3.953125 -7.066406 3.800781 -9.195312 3.800781 -11.324219 C 3.800781 -13.449219 3.953125 -15.652344 3.953125 -17.859375 C 3.953125 -19.984375 4.101562 -22.1875 4.101562 -24.390625 Z M 14.515625 -26.671875 C 14.515625 -26.0625 14.589844 -25.53125 14.589844 -25 C 14.589844 -22.492188 14.742188 -19.910156 14.742188 -17.402344 L 14.742188 -13.527344 C 14.742188 -13.070312 14.664062 -12.539062 14.742188 -12.082031 C 14.816406 -11.855469 15.5 -11.09375 15.5 -11.09375 C 15.882812 -11.019531 16.261719 -10.941406 16.640625 -10.941406 L 17.097656 -10.941406 C 18.769531 -11.171875 20.363281 -11.777344 21.886719 -12.539062 C 23.328125 -13.296875 24.847656 -14.132812 26.0625 -15.351562 C 27.28125 -16.488281 28.34375 -17.859375 29.105469 -19.378906 C 29.863281 -20.898438 30.167969 -22.570312 30.472656 -24.242188 C 30.625 -25.226562 30.699219 -26.214844 30.699219 -27.28125 C 30.699219 -27.886719 30.699219 -28.570312 30.546875 -29.257812 C 30.242188 -30.925781 29.636719 -32.523438 28.875 -34.042969 C 28.117188 -35.488281 26.898438 -36.703125 25.683594 -37.84375 C 24.46875 -39.058594 23.175781 -40.121094 21.65625 -40.804688 C 20.136719 -41.566406 18.542969 -42.023438 16.871094 -42.25 C 16.1875 -42.324219 15.5 -42.25 15.121094 -41.792969 C 14.742188 -41.414062 14.664062 -40.882812 14.664062 -40.351562 C 14.664062 -38.832031 14.515625 -37.3125 14.515625 -35.789062 C 14.515625 -34.269531 14.515625 -32.75 14.515625 -31.230469 Z M 14.515625 -26.671875 "/></g></g></g><g fill="#ccffd2" fill-opacity="1"><g transform="translate(226.887429, 324.189105)"><g><path d="M 5.015625 -26.597656 C 5.015625 -28.570312 4.9375 -30.625 4.9375 -32.597656 L 4.9375 -38.601562 C 4.9375 -40.652344 5.015625 -42.628906 5.015625 -44.683594 L 5.015625 -50.683594 C 5.015625 -50.988281 4.9375 -51.367188 4.9375 -51.671875 L 4.9375 -51.902344 C 5.015625 -52.203125 5.167969 -52.507812 5.394531 -52.738281 C 5.699219 -52.886719 6.003906 -52.964844 6.230469 -53.039062 C 6.460938 -53.117188 6.761719 -53.191406 7.066406 -53.191406 C 8.890625 -53.191406 10.714844 -53.039062 12.539062 -53.039062 C 12.917969 -53.039062 13.296875 -53.039062 13.753906 -52.964844 C 14.363281 -52.8125 14.742188 -52.507812 14.96875 -51.902344 L 14.96875 -51.140625 C 14.96875 -49.316406 15.046875 -47.492188 15.046875 -45.746094 C 15.046875 -43.921875 14.816406 -42.097656 14.816406 -40.273438 L 14.816406 -34.878906 C 14.96875 -33.054688 14.96875 -31.308594 14.96875 -29.484375 C 14.96875 -27.660156 15.046875 -25.914062 15.046875 -24.089844 C 15.046875 -22.265625 15.046875 -20.441406 15.046875 -18.695312 L 15.046875 -13.222656 C 15.046875 -11.472656 14.96875 -9.652344 14.96875 -7.828125 C 14.96875 -6.003906 15.046875 -4.253906 15.046875 -2.433594 C 15.046875 -2.050781 14.96875 -1.671875 14.816406 -1.292969 C 14.742188 -0.988281 14.664062 -0.683594 14.515625 -0.457031 C 14.285156 -0.226562 13.980469 -0.226562 13.753906 -0.152344 C 13.375 -0.152344 13.144531 0 12.84375 0 C 11.09375 0 9.195312 -0.0742188 7.445312 -0.0742188 C 7.066406 -0.0742188 6.609375 -0.0742188 6.230469 -0.152344 C 5.546875 -0.304688 5.320312 -0.683594 5.167969 -1.292969 C 5.089844 -1.519531 5.089844 -1.746094 5.089844 -2.050781 C 5.089844 -4.101562 4.9375 -6.15625 4.9375 -8.207031 L 4.9375 -14.285156 C 4.9375 -16.335938 5.015625 -18.390625 5.015625 -20.441406 Z M 5.015625 -26.597656 "/></g></g></g><g fill="#ccffd2" fill-opacity="1"><g transform="translate(262.602426, 324.189105)"><g><path d="M 29.179688 0.53125 C 29.179688 0.53125 29.105469 0.457031 29.027344 0.457031 C 28.570312 0.457031 28.117188 0.609375 27.660156 0.609375 C 27.28125 0.609375 26.898438 0.53125 26.519531 0.457031 C 26.214844 0.457031 25.914062 0.304688 25.609375 0.304688 C 25.226562 0.226562 24.925781 0.152344 24.542969 0.0742188 L 22.871094 -0.152344 C 22.339844 -0.304688 21.734375 -0.457031 21.199219 -0.683594 C 20.898438 -0.761719 20.59375 -0.910156 20.289062 -0.988281 C 19.679688 -1.214844 19.074219 -1.445312 18.464844 -1.746094 C 18.007812 -1.898438 17.476562 -2.128906 17.023438 -2.433594 C 16.261719 -2.8125 15.5 -3.265625 14.742188 -3.722656 C 14.058594 -4.179688 13.296875 -4.636719 12.613281 -5.167969 L 11.472656 -6.003906 C 11.246094 -6.15625 11.019531 -6.382812 10.789062 -6.609375 C 10.5625 -6.839844 10.410156 -7.066406 10.183594 -7.21875 C 10.105469 -7.296875 10.03125 -7.21875 9.953125 -7.296875 C 9.878906 -7.296875 10.03125 -7.445312 9.953125 -7.523438 C 9.878906 -7.597656 9.652344 -7.597656 9.5 -7.75 C 9.269531 -8.054688 9.117188 -8.359375 8.816406 -8.664062 C 8.585938 -8.964844 8.207031 -9.117188 7.980469 -9.421875 L 7.144531 -10.5625 C 6.839844 -10.941406 6.535156 -11.324219 6.308594 -11.703125 L 5.472656 -13.222656 C 5.015625 -13.90625 4.789062 -14.589844 4.40625 -15.351562 C 4.253906 -15.652344 4.179688 -16.035156 4.027344 -16.414062 L 3.34375 -18.085938 C 3.039062 -18.921875 2.8125 -19.679688 2.582031 -20.515625 C 2.507812 -20.898438 2.507812 -21.351562 2.433594 -21.808594 C 2.355469 -22.035156 2.203125 -22.339844 2.203125 -22.644531 C 2.128906 -22.796875 2.28125 -23.023438 2.203125 -23.175781 C 2.203125 -23.328125 2.128906 -23.480469 2.128906 -23.632812 L 1.898438 -24.542969 C 1.898438 -24.847656 1.976562 -25.078125 1.898438 -25.304688 C 1.898438 -25.53125 2.050781 -25.761719 2.050781 -25.914062 C 2.050781 -25.988281 1.976562 -26.140625 1.976562 -26.214844 L 1.976562 -26.367188 C 1.976562 -26.597656 1.898438 -26.824219 1.898438 -27.050781 L 1.898438 -27.203125 C 1.898438 -27.355469 1.898438 -27.507812 1.898438 -27.660156 L 1.898438 -28.648438 C 1.898438 -29.105469 2.128906 -29.484375 2.128906 -29.941406 C 2.203125 -30.320312 2.128906 -30.777344 2.203125 -31.15625 C 2.203125 -31.382812 2.355469 -31.535156 2.355469 -31.761719 C 2.433594 -31.992188 2.433594 -32.296875 2.507812 -32.597656 C 2.582031 -33.054688 2.886719 -33.433594 2.964844 -33.890625 C 3.117188 -34.347656 3.117188 -34.878906 3.265625 -35.410156 C 3.417969 -35.867188 3.800781 -36.324219 3.953125 -36.777344 C 4.179688 -37.3125 4.253906 -37.84375 4.484375 -38.296875 C 4.636719 -38.679688 4.9375 -38.984375 5.167969 -39.363281 C 5.546875 -40.046875 5.773438 -40.804688 6.230469 -41.488281 C 6.609375 -42.097656 6.992188 -42.707031 7.445312 -43.3125 C 7.75 -43.695312 8.207031 -43.921875 8.511719 -44.300781 C 8.738281 -44.53125 8.890625 -44.832031 9.117188 -45.0625 C 9.117188 -45.136719 9.042969 -45.214844 9.042969 -45.214844 C 9.421875 -45.59375 9.800781 -45.972656 10.257812 -46.277344 C 10.5625 -46.582031 10.867188 -46.960938 11.246094 -47.265625 C 11.398438 -47.417969 11.550781 -47.644531 11.777344 -47.796875 L 12.386719 -48.023438 C 12.765625 -48.328125 13.144531 -48.632812 13.601562 -48.9375 C 14.058594 -49.316406 14.589844 -49.773438 15.121094 -50.078125 L 16.71875 -50.988281 C 17.324219 -51.292969 18.007812 -51.519531 18.695312 -51.75 C 18.996094 -51.902344 19.300781 -52.203125 19.605469 -52.28125 C 19.984375 -52.433594 20.363281 -52.507812 20.746094 -52.660156 C 21.808594 -52.964844 22.871094 -53.191406 23.9375 -53.34375 C 24.164062 -53.421875 24.46875 -53.574219 24.773438 -53.574219 C 25.078125 -53.648438 25.378906 -53.800781 25.761719 -53.800781 C 25.988281 -53.875 26.292969 -53.800781 26.519531 -53.800781 C 26.671875 -53.875 26.898438 -53.800781 27.128906 -53.875 L 28.039062 -53.875 C 28.117188 -53.875 28.191406 -54.027344 28.269531 -54.027344 C 28.570312 -54.027344 28.875 -54.027344 29.179688 -54.027344 L 29.332031 -54.027344 C 29.558594 -54.027344 29.863281 -54.105469 30.089844 -54.027344 C 30.472656 -54.027344 30.851562 -53.953125 31.230469 -53.953125 L 31.761719 -53.953125 C 31.992188 -53.875 32.296875 -53.953125 32.597656 -53.875 C 32.902344 -53.875 33.207031 -53.648438 33.511719 -53.648438 C 34.121094 -53.496094 34.652344 -53.496094 35.257812 -53.34375 C 35.488281 -53.269531 35.789062 -53.269531 36.09375 -53.191406 C 36.855469 -53.039062 37.613281 -52.8125 38.296875 -52.507812 C 38.679688 -52.355469 38.984375 -52.203125 39.285156 -52.128906 L 40.503906 -51.671875 C 40.957031 -51.445312 41.414062 -51.066406 41.871094 -50.835938 C 42.402344 -50.53125 43.011719 -50.304688 43.542969 -49.925781 C 43.847656 -49.695312 44.300781 -49.546875 44.683594 -49.316406 C 45.0625 -49.011719 45.515625 -48.632812 45.898438 -48.253906 L 46.734375 -47.570312 C 46.960938 -47.339844 47.1875 -47.113281 47.417969 -46.960938 C 47.722656 -46.65625 47.949219 -46.429688 48.253906 -46.203125 L 48.785156 -45.746094 C 48.9375 -45.667969 48.9375 -45.441406 49.089844 -45.289062 C 49.242188 -45.136719 49.546875 -44.984375 49.773438 -44.757812 C 49.925781 -44.605469 50.078125 -44.378906 50.230469 -44.148438 C 50.382812 -43.921875 50.457031 -43.617188 50.683594 -43.390625 L 51.367188 -42.476562 C 51.671875 -42.097656 51.976562 -41.792969 52.203125 -41.339844 L 52.886719 -40.425781 C 53.039062 -40.121094 53.269531 -39.742188 53.421875 -39.363281 C 53.648438 -38.984375 53.875 -38.601562 54.027344 -38.222656 C 54.257812 -37.84375 54.410156 -37.386719 54.558594 -36.929688 C 54.789062 -36.398438 54.941406 -35.789062 55.167969 -35.257812 C 55.320312 -34.652344 55.546875 -34.121094 55.699219 -33.585938 C 55.851562 -33.054688 55.851562 -32.523438 56.003906 -31.992188 C 56.082031 -31.613281 56.082031 -31.230469 56.15625 -30.851562 C 56.15625 -30.546875 56.230469 -30.167969 56.230469 -29.789062 C 56.308594 -29.636719 56.382812 -29.484375 56.382812 -29.332031 C 56.382812 -29.105469 56.460938 -28.800781 56.460938 -28.570312 L 56.460938 -28.496094 C 56.460938 -28.191406 56.535156 -27.8125 56.535156 -27.433594 C 56.613281 -27.203125 56.382812 -26.976562 56.382812 -26.671875 C 56.382812 -26.367188 56.535156 -26.0625 56.535156 -25.683594 C 56.535156 -25.378906 56.535156 -25 56.460938 -24.695312 C 56.460938 -24.46875 56.382812 -24.316406 56.308594 -24.089844 L 56.308594 -23.558594 C 56.308594 -23.328125 56.230469 -23.101562 56.15625 -22.871094 L 56.15625 -22.035156 C 56.082031 -21.734375 55.929688 -21.429688 55.851562 -21.050781 C 55.699219 -20.441406 55.625 -19.832031 55.472656 -19.300781 C 55.320312 -18.769531 55.09375 -18.3125 54.941406 -17.78125 C 54.863281 -17.476562 54.789062 -17.25 54.710938 -16.945312 L 54.257812 -15.957031 C 53.953125 -15.351562 53.722656 -14.664062 53.34375 -13.980469 C 53.039062 -13.527344 52.738281 -13.070312 52.433594 -12.539062 C 52.128906 -12.082031 51.902344 -11.550781 51.597656 -11.09375 C 51.292969 -10.714844 50.988281 -10.488281 50.761719 -10.105469 C 50.53125 -9.800781 50.382812 -9.421875 50.152344 -9.117188 C 49.925781 -8.890625 49.773438 -8.664062 49.621094 -8.433594 C 49.46875 -8.28125 49.242188 -8.207031 49.089844 -8.054688 C 48.710938 -7.675781 48.40625 -7.21875 48.023438 -6.914062 C 47.875 -6.6875 47.570312 -6.609375 47.339844 -6.460938 C 47.1875 -6.308594 47.113281 -6.078125 47.039062 -6.003906 C 46.808594 -5.851562 46.582031 -5.699219 46.351562 -5.546875 L 45.214844 -4.636719 C 44.683594 -4.253906 44.148438 -3.953125 43.617188 -3.648438 C 43.238281 -3.417969 42.933594 -3.117188 42.554688 -2.886719 C 42.402344 -2.8125 42.25 -2.8125 42.097656 -2.8125 C 41.792969 -2.582031 41.640625 -2.28125 41.339844 -2.128906 C 40.957031 -1.976562 40.503906 -1.824219 40.121094 -1.597656 C 39.820312 -1.519531 39.4375 -1.519531 39.132812 -1.367188 C 38.296875 -1.0625 37.460938 -0.761719 36.550781 -0.53125 C 35.867188 -0.304688 35.105469 -0.0742188 34.421875 0.0742188 C 33.890625 0.152344 33.359375 0.152344 32.902344 0.226562 L 31.761719 0.457031 C 31.535156 0.457031 31.308594 0.609375 31.078125 0.609375 C 30.851562 0.683594 30.546875 0.609375 30.320312 0.609375 C 29.941406 0.683594 29.558594 0.53125 29.179688 0.53125 Z M 30.167969 -9.953125 C 32.144531 -10.03125 34.195312 -10.410156 36.171875 -11.324219 C 37.917969 -12.160156 39.515625 -13.527344 41.109375 -15.046875 C 42.628906 -16.640625 43.847656 -18.390625 44.605469 -20.289062 C 45.441406 -22.1875 45.898438 -24.242188 45.972656 -26.519531 C 46.050781 -27.8125 45.898438 -29.179688 45.667969 -30.472656 C 45.367188 -31.613281 44.910156 -32.75 44.378906 -33.816406 C 43.617188 -35.410156 42.628906 -36.855469 41.488281 -38.070312 C 40.882812 -38.753906 40.273438 -39.4375 39.589844 -39.96875 C 38.527344 -40.804688 37.3125 -41.488281 36.09375 -42.023438 C 34.953125 -42.554688 33.816406 -42.933594 32.597656 -43.160156 C 31.460938 -43.390625 30.394531 -43.542969 29.257812 -43.542969 C 27.660156 -43.542969 26.0625 -43.3125 24.46875 -42.859375 C 23.175781 -42.402344 21.960938 -41.792969 20.746094 -41.109375 C 19.527344 -40.351562 18.464844 -39.589844 17.476562 -38.601562 C 16.335938 -37.460938 15.273438 -36.171875 14.515625 -34.726562 C 13.90625 -33.585938 13.527344 -32.371094 13.222656 -31.078125 C 12.84375 -29.636719 12.386719 -28.191406 12.386719 -26.75 C 12.386719 -25.226562 12.765625 -23.785156 13.144531 -22.417969 C 13.527344 -20.972656 13.980469 -19.605469 14.742188 -18.3125 C 15.5 -16.945312 16.566406 -15.804688 17.628906 -14.742188 C 18.695312 -13.753906 19.910156 -12.84375 21.277344 -12.082031 C 22.644531 -11.324219 24.011719 -10.867188 25.609375 -10.488281 C 26.976562 -10.257812 28.421875 -9.953125 30.167969 -9.953125 Z M 30.167969 -9.953125 "/></g></g></g></svg>