<svg xmlns="http://www.w3.org/2000/svg" xmlns:xlink="http://www.w3.org/1999/xlink" width="500" zoomAndPan="magnify" viewBox="0 0 375 374.999991" height="500" preserveAspectRatio="xMidYMid meet" version="1.0"><defs><g/><clipPath id="634d1f0fda"><path d="M 21.867188 21.867188 L 353.132812 21.867188 L 353.132812 353.132812 L 21.867188 353.132812 Z M 21.867188 21.867188 " clip-rule="nonzero"/></clipPath><clipPath id="423449f2ca"><path d="M 187.5 21.867188 C 96.023438 21.867188 21.867188 96.023438 21.867188 187.5 C 21.867188 278.976562 96.023438 353.132812 187.5 353.132812 C 278.976562 353.132812 353.132812 278.976562 353.132812 187.5 C 353.132812 96.023438 278.976562 21.867188 187.5 21.867188 " clip-rule="nonzero"/></clipPath><clipPath id="3ffd4bd6b5"><path d="M 43 53 L 331 53 L 331 181 L 43 181 Z M 43 53 " clip-rule="nonzero"/></clipPath><clipPath id="186d48d6bc"><path d="M 348.921875 139.765625 L 186.640625 302.046875 L 24.359375 139.765625 L 186.640625 -22.515625 Z M 348.921875 139.765625 " clip-rule="nonzero"/></clipPath><clipPath id="88f6ce331c"><path d="M 348.921875 139.765625 L 186.640625 302.046875 L 24.359375 139.765625 L 186.640625 -22.515625 Z M 348.921875 139.765625 " clip-rule="nonzero"/></clipPath><clipPath id="7892693cf7"><path d="M 348.921875 139.765625 L 186.640625 302.046875 L 24.359375 139.765625 L 186.640625 -22.515625 Z M 348.921875 139.765625 " clip-rule="nonzero"/></clipPath></defs><g clip-path="url(#634d1f0fda)"><g clip-path="url(#423449f2ca)"><path fill="#fffcd3" d="M 21.867188 21.867188 L 353.132812 21.867188 L 353.132812 353.132812 L 21.867188 353.132812 Z M 21.867188 21.867188 " fill-opacity="1" fill-rule="nonzero"/></g></g><g clip-path="url(#3ffd4bd6b5)"><g clip-path="url(#186d48d6bc)"><g clip-path="url(#88f6ce331c)"><g clip-path="url(#7892693cf7)"><path fill="#000000" d="M 69.519531 180.910156 C 65.167969 178.925781 61.078125 176.21875 57.414062 172.765625 C 57.050781 172.453125 56.710938 172.113281 56.359375 171.761719 C 38.691406 154.097656 38.695312 125.433594 56.359375 107.765625 C 128.316406 35.8125 244.96875 35.8125 316.925781 107.769531 C 334.589844 125.433594 334.589844 154.097656 316.925781 171.761719 C 316.574219 172.113281 316.234375 172.453125 315.871094 172.765625 C 312.207031 176.21875 308.105469 178.941406 303.753906 180.921875 L 239.730469 140.925781 C 239.707031 140.898438 239.707031 140.871094 239.71875 140.832031 L 251.847656 108.902344 L 251.886719 108.808594 C 210.992188 88.132812 162.292969 88.132812 121.394531 108.808594 L 121.4375 108.902344 L 133.566406 140.859375 L 69.519531 180.910156 " fill-opacity="1" fill-rule="nonzero"/></g></g></g></g><g fill="#000000" fill-opacity="1"><g transform="translate(207.761781, 260.003985)"><g><path d="M 15.847656 -3 L 12.003906 -3 L 15.125 -17.527344 L 36.375 -17.527344 L 38.894531 -3 L 34.335938 -3 L 34.335938 0 L 56.785156 0 L 56.785156 -3 L 52.460938 -3 L 34.214844 -85.714844 L 27.011719 -85.714844 L 6.722656 -3 L 1.5625 -3 L 1.5625 0 L 15.847656 0 Z M 24.488281 -55.824219 L 25.8125 -64.105469 L 35.414062 -20.769531 L 16.328125 -20.769531 Z M 24.488281 -55.824219 "/></g></g></g><g fill="#000000" fill-opacity="1"><g transform="translate(110.814094, 257.900469)"><g><path d="M 50.914062 -3.003906 C 48.992188 -3.003906 48.511719 -5.285156 48.511719 -7.566406 L 48.511719 -23.414062 C 48.511719 -29.539062 45.988281 -33.863281 43.46875 -36.742188 C 42.027344 -38.425781 40.347656 -39.867188 38.425781 -41.066406 C 38.183594 -41.1875 38.066406 -41.308594 38.066406 -41.667969 C 38.066406 -42.027344 38.183594 -42.148438 38.546875 -42.269531 C 40.347656 -43.109375 42.027344 -44.429688 43.46875 -46.46875 C 45.871094 -49.832031 48.390625 -55.355469 48.390625 -65.441406 C 48.390625 -79.371094 38.066406 -85.734375 26.417969 -85.734375 L 5.644531 -85.734375 L 5.644531 -82.734375 L 9.847656 -82.734375 L 9.847656 -3.003906 L 5.765625 -3.003906 L 5.765625 0 L 24.617188 0 L 24.617188 -3.003906 L 21.972656 -3.003906 L 21.972656 -39.984375 L 26.539062 -39.984375 C 33.140625 -39.984375 35.421875 -33.140625 35.421875 -28.820312 C 35.542969 -28.699219 35.542969 -28.339844 35.542969 -27.976562 L 35.542969 -12.246094 C 35.542969 -2.042969 40.585938 1.199219 48.03125 1.199219 C 51.394531 1.199219 53.433594 0.359375 54.035156 -0.601562 L 52.835938 -3.480469 C 52.355469 -3.121094 51.753906 -3.003906 50.914062 -3.003906 Z M 35.421875 -58.238281 C 35.421875 -49.59375 32.179688 -43.226562 26.539062 -43.226562 L 21.972656 -43.226562 L 21.972656 -82.492188 L 26.539062 -82.492188 C 32.660156 -82.492188 35.421875 -75.050781 35.421875 -68.324219 Z M 35.421875 -58.238281 "/></g></g></g><g fill="#000000" fill-opacity="1"><g transform="translate(53.15366, 250.1059)"><g><path d="M 8.601562 0.707031 L 10.257812 4.050781 L 6.027344 12.160156 L 7.0625 14.25 L 11.472656 5.765625 C 13 8.054688 15.582031 9.328125 18.378906 7.9375 C 20.929688 6.675781 22.273438 3.824219 20.296875 -0.167969 L 17.492188 -5.832031 L 1.128906 2.277344 L 1.976562 3.992188 Z M 10.167969 -0.0703125 L 16.730469 -3.320312 L 18.636719 0.523438 C 20.179688 3.636719 19.066406 5.4375 17.457031 6.234375 C 15.808594 7.054688 13.523438 6.703125 12.054688 3.734375 Z M 10.167969 -0.0703125 "/></g></g></g><g fill="#000000" fill-opacity="1"><g transform="translate(69.669901, 279.08586)"><g><path d="M 21.605469 0.390625 L 22.980469 -0.730469 L 15.753906 -9.582031 L 1.609375 1.96875 L 8.894531 10.894531 L 10.265625 9.773438 L 4.191406 2.328125 L 9.320312 -1.859375 L 14.824219 4.878906 L 16.195312 3.757812 L 10.691406 -2.980469 L 15.589844 -6.976562 Z M 21.605469 0.390625 "/></g></g></g><g fill="#000000" fill-opacity="1"><g transform="translate(91.296133, 302.675637)"><g><path d="M 15.375 -8.847656 L 5.183594 4.085938 L 6.703125 5.285156 L 16.894531 -7.648438 L 21.675781 -3.878906 L 22.789062 -5.289062 L 11.6875 -14.039062 L 10.578125 -12.628906 Z M 15.375 -8.847656 "/></g></g></g><g fill="#000000" fill-opacity="1"><g transform="translate(117.222289, 320.874457)"><g><path d="M 7.199219 -4.761719 L 10.566406 -3.160156 L 12.257812 5.832031 L 14.363281 6.835938 L 12.582031 -2.5625 C 15.195312 -1.703125 18.011719 -2.300781 19.355469 -5.125 C 20.578125 -7.691406 19.871094 -10.765625 15.847656 -12.679688 L 10.140625 -15.398438 L 2.296875 1.09375 L 4.023438 1.914062 Z M 7.949219 -6.339844 L 11.097656 -12.953125 L 14.972656 -11.109375 C 18.109375 -9.617188 18.347656 -7.515625 17.578125 -5.890625 C 16.785156 -4.230469 14.773438 -3.09375 11.785156 -4.515625 Z M 7.949219 -6.339844 "/></g></g></g><g fill="#000000" fill-opacity="1"><g transform="translate(148.225178, 333.640827)"><g><path d="M 21.046875 -5.109375 C 22.082031 -10.207031 19.046875 -14.960938 13.929688 -16 C 8.738281 -17.050781 4.078125 -13.785156 3.035156 -8.640625 C 2.003906 -3.542969 5.035156 1.210938 10.15625 2.25 C 15.34375 3.300781 20.003906 0.0351562 21.046875 -5.109375 Z M 19.082031 -5.386719 C 18.269531 -1.386719 14.695312 1.335938 10.582031 0.503906 C 6.421875 -0.339844 4.183594 -4.316406 5.003906 -8.363281 C 5.8125 -12.363281 9.386719 -15.085938 13.503906 -14.253906 C 17.664062 -13.410156 19.898438 -9.410156 19.082031 -5.386719 Z M 19.082031 -5.386719 "/></g></g></g><g fill="#000000" fill-opacity="1"><g transform="translate(185.148885, 338.637949)"><g/></g></g><g fill="#000000" fill-opacity="1"><g transform="translate(208.015974, 337.435037)"><g><path d="M 1.988281 -0.410156 L 3.007812 -5.382812 L 12.761719 -7.398438 L 15.644531 -3.230469 L 17.632812 -3.644531 L 6.21875 -19.929688 L 4.09375 -19.492188 L 0.0703125 -0.015625 Z M 11.675781 -8.960938 L 3.363281 -7.242188 L 5.523438 -17.761719 Z M 11.675781 -8.960938 "/></g></g></g><g fill="#000000" fill-opacity="1"><g transform="translate(241.597048, 328.471497)"><g><path d="M 6.640625 -23.367188 L 4.914062 -22.546875 L 9.746094 -12.371094 C 11.207031 -9.296875 10.496094 -6.765625 7.652344 -5.414062 C 5.101562 -4.203125 2.472656 -4.632812 0.761719 -8.234375 L -4.019531 -18.304688 L -5.746094 -17.484375 L -0.925781 -7.332031 C 0.925781 -3.433594 4.355469 -1.863281 8.359375 -3.761719 C 12.277344 -5.625 13.394531 -9.148438 11.414062 -13.320312 Z M 6.640625 -23.367188 "/></g></g></g><g fill="#000000" fill-opacity="1"><g transform="translate(272.339288, 311.662567)"><g><path d="M -9.597656 -15.742188 L 1.96875 -1.609375 L 6.171875 -5.050781 C 10.304688 -8.433594 11.265625 -14.039062 7.824219 -18.242188 C 4.558594 -22.234375 -0.988281 -22.789062 -5.390625 -19.183594 Z M 2.308594 -4.210938 L -6.980469 -15.5625 L -4.324219 -17.734375 C -0.644531 -20.746094 3.660156 -20.203125 6.320312 -16.953125 C 9.019531 -13.648438 8.554688 -9.320312 4.980469 -6.394531 Z M 2.308594 -4.210938 "/></g></g></g><g fill="#000000" fill-opacity="1"><g transform="translate(298.125742, 287.671216)"><g><path d="M 2.8125 -3.453125 L -11.34375 -14.988281 L -12.550781 -13.503906 L 1.605469 -1.972656 Z M 2.8125 -3.453125 "/></g></g></g><g fill="#000000" fill-opacity="1"><g transform="translate(312.172636, 268.839326)"><g><path d="M 0.796875 -21.644531 C -3.828125 -24.023438 -9.230469 -22.394531 -11.617188 -17.746094 C -14.039062 -13.039062 -12.160156 -7.667969 -7.492188 -5.269531 C -2.867188 -2.890625 2.53125 -4.519531 4.921875 -9.164062 C 7.34375 -13.875 5.460938 -19.246094 0.796875 -21.644531 Z M -0.0078125 -19.828125 C 3.621094 -17.960938 5.277344 -13.78125 3.355469 -10.046875 C 1.414062 -6.273438 -3.019531 -5.195312 -6.691406 -7.085938 C -10.320312 -8.949219 -11.972656 -13.128906 -10.054688 -16.863281 C -8.113281 -20.640625 -3.65625 -21.703125 -0.0078125 -19.828125 Z M -0.0078125 -19.828125 "/></g></g></g><path stroke-linecap="butt" transform="matrix(0.000000000000000046, -0.75059, 0.75, 0.000000000000000046, 186.564983, 284.87664)" fill="none" stroke-linejoin="miter" d="M 0.00218561 2.001897 L 178.871985 2.001897 " stroke="#000000" stroke-width="4" stroke-opacity="1" stroke-miterlimit="4"/></svg>